<?xml version="1.0" encoding="UTF-8" standalone="no"?>
<!DOCTYPE svg PUBLIC "-//W3C//DTD SVG 1.1//EN"
 "http://www.w3.org/Graphics/SVG/1.1/DTD/svg11.dtd">
<!-- Generated by graphviz version 2.44.1 (20200629.0846)
 -->
<!-- Title: vc_nb_12 Pages: 1 -->
<svg width="1264pt" height="174pt"
 viewBox="0.00 0.00 1264.00 174.00" xmlns="http://www.w3.org/2000/svg" xmlns:xlink="http://www.w3.org/1999/xlink">
<g id="graph0" class="graph" transform="scale(1 1) rotate(0) translate(4 170)">
<title>vc_nb_12</title>
<polygon fill="white" stroke="transparent" points="-4,4 -4,-170 1260,-170 1260,4 -4,4"/>
<g id="clust1" class="cluster">
<title>cluster_CPR</title>
<polygon fill="none" stroke="black" points="8,-8 8,-158 174,-158 174,-8 8,-8"/>
<text text-anchor="middle" x="91" y="-142.8" font-family="Times,serif" font-size="14.00">CPR</text>
</g>
<g id="clust2" class="cluster">
<title>cluster_PVS Prelude</title>
<polygon fill="none" stroke="black" points="1160,-8 1160,-83 1248,-83 1248,-8 1160,-8"/>
<text text-anchor="middle" x="1204" y="-67.8" font-family="Times,serif" font-size="14.00">PVS Prelude</text>
</g>
<g id="clust3" class="cluster">
<title>cluster_pvslib&#45;gitlab__pvs7.0</title>
<polygon fill="none" stroke="black" points="182,-8 182,-83 1152,-83 1152,-8 182,-8"/>
<text text-anchor="middle" x="667" y="-67.8" font-family="Times,serif" font-size="14.00">pvslib&#45;gitlab__pvs7.0</text>
</g>
<!-- /Users/mmoscato/nasa/cpr/gitlab_github/PVS/CPR -->
<g id="node1" class="node">
<title>/Users/mmoscato/nasa/cpr/gitlab_github/PVS/CPR</title>
<polygon fill="#fcfcd7" stroke="black" points="70,-52 16,-52 16,-16 70,-16 70,-52"/>
<text text-anchor="middle" x="43" y="-30.3" font-family="Times,serif" font-size="14.00">CPR</text>
</g>
<!-- /Users/mmoscato/nasa/cpr/gitlab_github/PVS/framac_wp -->
<g id="node2" class="node">
<title>/Users/mmoscato/nasa/cpr/gitlab_github/PVS/framac_wp</title>
<polygon fill="#fcfcd7" stroke="black" points="166,-52 88,-52 88,-16 166,-16 166,-52"/>
<text text-anchor="middle" x="127" y="-30.3" font-family="Times,serif" font-size="14.00">framac_wp</text>
</g>
<!-- /Users/mmoscato/nasa/cpr/gitlab_github/PVS/vc_nb_12 -->
<g id="node3" class="node">
<title>/Users/mmoscato/nasa/cpr/gitlab_github/PVS/vc_nb_12</title>
<polygon fill="#f7e28d" stroke="black" points="162,-127 92,-127 92,-91 162,-91 162,-127"/>
<text text-anchor="middle" x="127" y="-105.3" font-family="Times,serif" font-size="14.00">vc_nb_12</text>
</g>
<!-- /Users/mmoscato/nasa/cpr/gitlab_github/PVS/vc_nb_12&#45;&gt;/Users/mmoscato/nasa/cpr/gitlab_github/PVS/CPR -->
<g id="edge1" class="edge">
<title>/Users/mmoscato/nasa/cpr/gitlab_github/PVS/vc_nb_12&#45;&gt;/Users/mmoscato/nasa/cpr/gitlab_github/PVS/CPR</title>
<path fill="none" stroke="black" d="M91.86,-109C68.84,-109 43,-109 43,-109 43,-109 43,-62.16 43,-62.16"/>
<polygon fill="black" stroke="black" points="46.5,-62.16 43,-52.16 39.5,-62.16 46.5,-62.16"/>
</g>
<!-- /Users/mmoscato/nasa/cpr/gitlab_github/PVS/vc_nb_12&#45;&gt;/Users/mmoscato/nasa/cpr/gitlab_github/PVS/framac_wp -->
<g id="edge2" class="edge">
<title>/Users/mmoscato/nasa/cpr/gitlab_github/PVS/vc_nb_12&#45;&gt;/Users/mmoscato/nasa/cpr/gitlab_github/PVS/framac_wp</title>
<path fill="none" stroke="black" d="M127,-90.84C127,-90.84 127,-62.25 127,-62.25"/>
<polygon fill="black" stroke="black" points="130.5,-62.25 127,-52.25 123.5,-62.25 130.5,-62.25"/>
</g>
<!-- /Users/mmoscato/nasa/pvslib/pvslib&#45;gitlab__pvs7.0/Sturm -->
<g id="node4" class="node">
<title>/Users/mmoscato/nasa/pvslib/pvslib&#45;gitlab__pvs7.0/Sturm</title>
<polygon fill="#fcfcd7" stroke="black" points="1144,-52 1090,-52 1090,-16 1144,-16 1144,-52"/>
<text text-anchor="middle" x="1117" y="-30.3" font-family="Times,serif" font-size="14.00">Sturm</text>
</g>
<!-- /Users/mmoscato/nasa/cpr/gitlab_github/PVS/vc_nb_12&#45;&gt;/Users/mmoscato/nasa/pvslib/pvslib&#45;gitlab__pvs7.0/Sturm -->
<g id="edge3" class="edge">
<title>/Users/mmoscato/nasa/cpr/gitlab_github/PVS/vc_nb_12&#45;&gt;/Users/mmoscato/nasa/pvslib/pvslib&#45;gitlab__pvs7.0/Sturm</title>
<path fill="none" stroke="black" d="M162.23,-121C338.59,-121 1117,-121 1117,-121 1117,-121 1117,-62.03 1117,-62.03"/>
<polygon fill="black" stroke="black" points="1120.5,-62.03 1117,-52.03 1113.5,-62.03 1120.5,-62.03"/>
</g>
<!-- /Users/mmoscato/nasa/pvslib/pvslib&#45;gitlab__pvs7.0/analysis -->
<g id="node5" class="node">
<title>/Users/mmoscato/nasa/pvslib/pvslib&#45;gitlab__pvs7.0/analysis</title>
<polygon fill="#fcfcd7" stroke="black" points="1072,-52 1012,-52 1012,-16 1072,-16 1072,-52"/>
<text text-anchor="middle" x="1042" y="-30.3" font-family="Times,serif" font-size="14.00">analysis</text>
</g>
<!-- /Users/mmoscato/nasa/cpr/gitlab_github/PVS/vc_nb_12&#45;&gt;/Users/mmoscato/nasa/pvslib/pvslib&#45;gitlab__pvs7.0/analysis -->
<g id="edge4" class="edge">
<title>/Users/mmoscato/nasa/cpr/gitlab_github/PVS/vc_nb_12&#45;&gt;/Users/mmoscato/nasa/pvslib/pvslib&#45;gitlab__pvs7.0/analysis</title>
<path fill="none" stroke="black" d="M162.03,-119C329.68,-119 1042,-119 1042,-119 1042,-119 1042,-62.03 1042,-62.03"/>
<polygon fill="black" stroke="black" points="1045.5,-62.03 1042,-52.03 1038.5,-62.03 1045.5,-62.03"/>
</g>
<!-- /Users/mmoscato/nasa/pvslib/pvslib&#45;gitlab__pvs7.0/exact_real_arith -->
<g id="node6" class="node">
<title>/Users/mmoscato/nasa/pvslib/pvslib&#45;gitlab__pvs7.0/exact_real_arith</title>
<polygon fill="#fcfcd7" stroke="black" points="994,-52 890,-52 890,-16 994,-16 994,-52"/>
<text text-anchor="middle" x="942" y="-30.3" font-family="Times,serif" font-size="14.00">exact_real_arith</text>
</g>
<!-- /Users/mmoscato/nasa/cpr/gitlab_github/PVS/vc_nb_12&#45;&gt;/Users/mmoscato/nasa/pvslib/pvslib&#45;gitlab__pvs7.0/exact_real_arith -->
<g id="edge5" class="edge">
<title>/Users/mmoscato/nasa/cpr/gitlab_github/PVS/vc_nb_12&#45;&gt;/Users/mmoscato/nasa/pvslib/pvslib&#45;gitlab__pvs7.0/exact_real_arith</title>
<path fill="none" stroke="black" d="M162.02,-116C318.02,-116 942,-116 942,-116 942,-116 942,-62.2 942,-62.2"/>
<polygon fill="black" stroke="black" points="945.5,-62.2 942,-52.2 938.5,-62.2 945.5,-62.2"/>
</g>
<!-- /Users/mmoscato/nasa/pvslib/pvslib&#45;gitlab__pvs7.0/interval_arith -->
<g id="node7" class="node">
<title>/Users/mmoscato/nasa/pvslib/pvslib&#45;gitlab__pvs7.0/interval_arith</title>
<polygon fill="#fcfcd7" stroke="black" points="871.5,-52 782.5,-52 782.5,-16 871.5,-16 871.5,-52"/>
<text text-anchor="middle" x="827" y="-30.3" font-family="Times,serif" font-size="14.00">interval_arith</text>
</g>
<!-- /Users/mmoscato/nasa/cpr/gitlab_github/PVS/vc_nb_12&#45;&gt;/Users/mmoscato/nasa/pvslib/pvslib&#45;gitlab__pvs7.0/interval_arith -->
<g id="edge6" class="edge">
<title>/Users/mmoscato/nasa/cpr/gitlab_github/PVS/vc_nb_12&#45;&gt;/Users/mmoscato/nasa/pvslib/pvslib&#45;gitlab__pvs7.0/interval_arith</title>
<path fill="none" stroke="black" d="M162.19,-114C304.14,-114 827,-114 827,-114 827,-114 827,-62.15 827,-62.15"/>
<polygon fill="black" stroke="black" points="830.5,-62.15 827,-52.15 823.5,-62.15 830.5,-62.15"/>
</g>
<!-- /Users/mmoscato/nasa/pvslib/pvslib&#45;gitlab__pvs7.0/ints -->
<g id="node8" class="node">
<title>/Users/mmoscato/nasa/pvslib/pvslib&#45;gitlab__pvs7.0/ints</title>
<polygon fill="#fcfcd7" stroke="black" points="764,-52 710,-52 710,-16 764,-16 764,-52"/>
<text text-anchor="middle" x="737" y="-30.3" font-family="Times,serif" font-size="14.00">ints</text>
</g>
<!-- /Users/mmoscato/nasa/cpr/gitlab_github/PVS/vc_nb_12&#45;&gt;/Users/mmoscato/nasa/pvslib/pvslib&#45;gitlab__pvs7.0/ints -->
<g id="edge7" class="edge">
<title>/Users/mmoscato/nasa/cpr/gitlab_github/PVS/vc_nb_12&#45;&gt;/Users/mmoscato/nasa/pvslib/pvslib&#45;gitlab__pvs7.0/ints</title>
<path fill="none" stroke="black" d="M162.43,-111C292.62,-111 737,-111 737,-111 737,-111 737,-62.25 737,-62.25"/>
<polygon fill="black" stroke="black" points="740.5,-62.25 737,-52.25 733.5,-62.25 740.5,-62.25"/>
</g>
<!-- /Users/mmoscato/nasa/pvslib/pvslib&#45;gitlab__pvs7.0/lnexp -->
<g id="node9" class="node">
<title>/Users/mmoscato/nasa/pvslib/pvslib&#45;gitlab__pvs7.0/lnexp</title>
<polygon fill="#fcfcd7" stroke="black" points="692,-52 638,-52 638,-16 692,-16 692,-52"/>
<text text-anchor="middle" x="665" y="-30.3" font-family="Times,serif" font-size="14.00">lnexp</text>
</g>
<!-- /Users/mmoscato/nasa/cpr/gitlab_github/PVS/vc_nb_12&#45;&gt;/Users/mmoscato/nasa/pvslib/pvslib&#45;gitlab__pvs7.0/lnexp -->
<g id="edge8" class="edge">
<title>/Users/mmoscato/nasa/cpr/gitlab_github/PVS/vc_nb_12&#45;&gt;/Users/mmoscato/nasa/pvslib/pvslib&#45;gitlab__pvs7.0/lnexp</title>
<path fill="none" stroke="black" d="M162.3,-109C281.99,-109 665,-109 665,-109 665,-109 665,-62.16 665,-62.16"/>
<polygon fill="black" stroke="black" points="668.5,-62.16 665,-52.16 661.5,-62.16 668.5,-62.16"/>
</g>
<!-- /Users/mmoscato/nasa/pvslib/pvslib&#45;gitlab__pvs7.0/orders -->
<g id="node10" class="node">
<title>/Users/mmoscato/nasa/pvslib/pvslib&#45;gitlab__pvs7.0/orders</title>
<polygon fill="#fcfcd7" stroke="black" points="620,-52 566,-52 566,-16 620,-16 620,-52"/>
<text text-anchor="middle" x="593" y="-30.3" font-family="Times,serif" font-size="14.00">orders</text>
</g>
<!-- /Users/mmoscato/nasa/cpr/gitlab_github/PVS/vc_nb_12&#45;&gt;/Users/mmoscato/nasa/pvslib/pvslib&#45;gitlab__pvs7.0/orders -->
<g id="edge9" class="edge">
<title>/Users/mmoscato/nasa/cpr/gitlab_github/PVS/vc_nb_12&#45;&gt;/Users/mmoscato/nasa/pvslib/pvslib&#45;gitlab__pvs7.0/orders</title>
<path fill="none" stroke="black" d="M162.03,-106C270.4,-106 593,-106 593,-106 593,-106 593,-62.17 593,-62.17"/>
<polygon fill="black" stroke="black" points="596.5,-62.17 593,-52.17 589.5,-62.17 596.5,-62.17"/>
</g>
<!-- /Users/mmoscato/nasa/pvslib/pvslib&#45;gitlab__pvs7.0/power -->
<g id="node11" class="node">
<title>/Users/mmoscato/nasa/pvslib/pvslib&#45;gitlab__pvs7.0/power</title>
<polygon fill="#fcfcd7" stroke="black" points="548,-52 494,-52 494,-16 548,-16 548,-52"/>
<text text-anchor="middle" x="521" y="-30.3" font-family="Times,serif" font-size="14.00">power</text>
</g>
<!-- /Users/mmoscato/nasa/cpr/gitlab_github/PVS/vc_nb_12&#45;&gt;/Users/mmoscato/nasa/pvslib/pvslib&#45;gitlab__pvs7.0/power -->
<g id="edge10" class="edge">
<title>/Users/mmoscato/nasa/cpr/gitlab_github/PVS/vc_nb_12&#45;&gt;/Users/mmoscato/nasa/pvslib/pvslib&#45;gitlab__pvs7.0/power</title>
<path fill="none" stroke="black" d="M162.31,-103C259.02,-103 521,-103 521,-103 521,-103 521,-62.13 521,-62.13"/>
<polygon fill="black" stroke="black" points="524.5,-62.13 521,-52.13 517.5,-62.13 524.5,-62.13"/>
</g>
<!-- /Users/mmoscato/nasa/pvslib/pvslib&#45;gitlab__pvs7.0/reals -->
<g id="node12" class="node">
<title>/Users/mmoscato/nasa/pvslib/pvslib&#45;gitlab__pvs7.0/reals</title>
<polygon fill="#fcfcd7" stroke="black" points="476,-52 422,-52 422,-16 476,-16 476,-52"/>
<text text-anchor="middle" x="449" y="-30.3" font-family="Times,serif" font-size="14.00">reals</text>
</g>
<!-- /Users/mmoscato/nasa/cpr/gitlab_github/PVS/vc_nb_12&#45;&gt;/Users/mmoscato/nasa/pvslib/pvslib&#45;gitlab__pvs7.0/reals -->
<g id="edge11" class="edge">
<title>/Users/mmoscato/nasa/cpr/gitlab_github/PVS/vc_nb_12&#45;&gt;/Users/mmoscato/nasa/pvslib/pvslib&#45;gitlab__pvs7.0/reals</title>
<path fill="none" stroke="black" d="M162.07,-101C245.53,-101 449,-101 449,-101 449,-101 449,-62.31 449,-62.31"/>
<polygon fill="black" stroke="black" points="452.5,-62.31 449,-52.31 445.5,-62.31 452.5,-62.31"/>
</g>
<!-- /Users/mmoscato/nasa/pvslib/pvslib&#45;gitlab__pvs7.0/series -->
<g id="node13" class="node">
<title>/Users/mmoscato/nasa/pvslib/pvslib&#45;gitlab__pvs7.0/series</title>
<polygon fill="#fcfcd7" stroke="black" points="404,-52 350,-52 350,-16 404,-16 404,-52"/>
<text text-anchor="middle" x="377" y="-30.3" font-family="Times,serif" font-size="14.00">series</text>
</g>
<!-- /Users/mmoscato/nasa/cpr/gitlab_github/PVS/vc_nb_12&#45;&gt;/Users/mmoscato/nasa/pvslib/pvslib&#45;gitlab__pvs7.0/series -->
<g id="edge12" class="edge">
<title>/Users/mmoscato/nasa/cpr/gitlab_github/PVS/vc_nb_12&#45;&gt;/Users/mmoscato/nasa/pvslib/pvslib&#45;gitlab__pvs7.0/series</title>
<path fill="none" stroke="black" d="M162.02,-98C230.83,-98 377,-98 377,-98 377,-98 377,-62.17 377,-62.17"/>
<polygon fill="black" stroke="black" points="380.5,-62.17 377,-52.17 373.5,-62.17 380.5,-62.17"/>
</g>
<!-- /Users/mmoscato/nasa/pvslib/pvslib&#45;gitlab__pvs7.0/structures -->
<g id="node14" class="node">
<title>/Users/mmoscato/nasa/pvslib/pvslib&#45;gitlab__pvs7.0/structures</title>
<polygon fill="#fcfcd7" stroke="black" points="331.5,-52 262.5,-52 262.5,-16 331.5,-16 331.5,-52"/>
<text text-anchor="middle" x="297" y="-30.3" font-family="Times,serif" font-size="14.00">structures</text>
</g>
<!-- /Users/mmoscato/nasa/cpr/gitlab_github/PVS/vc_nb_12&#45;&gt;/Users/mmoscato/nasa/pvslib/pvslib&#45;gitlab__pvs7.0/structures -->
<g id="edge13" class="edge">
<title>/Users/mmoscato/nasa/cpr/gitlab_github/PVS/vc_nb_12&#45;&gt;/Users/mmoscato/nasa/pvslib/pvslib&#45;gitlab__pvs7.0/structures</title>
<path fill="none" stroke="black" d="M162.22,-96C212.02,-96 297,-96 297,-96 297,-96 297,-62.27 297,-62.27"/>
<polygon fill="black" stroke="black" points="300.5,-62.27 297,-52.27 293.5,-62.27 300.5,-62.27"/>
</g>
<!-- /Users/mmoscato/nasa/pvslib/pvslib&#45;gitlab__pvs7.0/trig -->
<g id="node15" class="node">
<title>/Users/mmoscato/nasa/pvslib/pvslib&#45;gitlab__pvs7.0/trig</title>
<polygon fill="#fcfcd7" stroke="black" points="244,-52 190,-52 190,-16 244,-16 244,-52"/>
<text text-anchor="middle" x="217" y="-30.3" font-family="Times,serif" font-size="14.00">trig</text>
</g>
<!-- /Users/mmoscato/nasa/cpr/gitlab_github/PVS/vc_nb_12&#45;&gt;/Users/mmoscato/nasa/pvslib/pvslib&#45;gitlab__pvs7.0/trig -->
<g id="edge14" class="edge">
<title>/Users/mmoscato/nasa/cpr/gitlab_github/PVS/vc_nb_12&#45;&gt;/Users/mmoscato/nasa/pvslib/pvslib&#45;gitlab__pvs7.0/trig</title>
<path fill="none" stroke="black" d="M162.05,-93C187.32,-93 217,-93 217,-93 217,-93 217,-62.02 217,-62.02"/>
<polygon fill="black" stroke="black" points="220.5,-62.02 217,-52.02 213.5,-62.02 220.5,-62.02"/>
</g>
<!-- /Users/mmoscato/pvs/7.1&#45;0&#45;ge7a69672&#45;ix86&#45;MacOSX&#45;allegro/lib/finite_sets -->
<g id="node16" class="node">
<title>/Users/mmoscato/pvs/7.1&#45;0&#45;ge7a69672&#45;ix86&#45;MacOSX&#45;allegro/lib/finite_sets</title>
<polygon fill="#fcfcd7" stroke="black" points="1239.5,-52 1168.5,-52 1168.5,-16 1239.5,-16 1239.5,-52"/>
<text text-anchor="middle" x="1204" y="-30.3" font-family="Times,serif" font-size="14.00">finite_sets</text>
</g>
<!-- /Users/mmoscato/nasa/cpr/gitlab_github/PVS/vc_nb_12&#45;&gt;/Users/mmoscato/pvs/7.1&#45;0&#45;ge7a69672&#45;ix86&#45;MacOSX&#45;allegro/lib/finite_sets -->
<g id="edge15" class="edge">
<title>/Users/mmoscato/nasa/cpr/gitlab_github/PVS/vc_nb_12&#45;&gt;/Users/mmoscato/pvs/7.1&#45;0&#45;ge7a69672&#45;ix86&#45;MacOSX&#45;allegro/lib/finite_sets</title>
<path fill="none" stroke="black" d="M162.22,-124C347.84,-124 1204,-124 1204,-124 1204,-124 1204,-62.21 1204,-62.21"/>
<polygon fill="black" stroke="black" points="1207.5,-62.21 1204,-52.21 1200.5,-62.21 1207.5,-62.21"/>
</g>
</g>
</svg>
