<?xml version="1.0" encoding="UTF-8" standalone="no"?>
<!DOCTYPE svg PUBLIC "-//W3C//DTD SVG 1.1//EN"
 "http://www.w3.org/Graphics/SVG/1.1/DTD/svg11.dtd">
<!-- Generated by graphviz version 2.44.1 (20200629.0846)
 -->
<!-- Title: framac_wp Pages: 1 -->
<svg width="716pt" height="254pt"
 viewBox="0.00 0.00 716.00 254.00" xmlns="http://www.w3.org/2000/svg" xmlns:xlink="http://www.w3.org/1999/xlink">
<g id="graph0" class="graph" transform="scale(1 1) rotate(0) translate(4 250)">
<title>framac_wp</title>
<polygon fill="white" stroke="transparent" points="-4,4 -4,-250 712,-250 712,4 -4,4"/>
<g id="clust1" class="cluster">
<title>cluster_CPR</title>
<polygon fill="none" stroke="black" points="275,-91 275,-238 625,-238 625,-91 275,-91"/>
<text text-anchor="middle" x="450" y="-222.8" font-family="Times,serif" font-size="14.00">CPR</text>
</g>
<g id="clust2" class="cluster">
<title>cluster_NASALib</title>
<polygon fill="none" stroke="black" points="8,-8 8,-83 604,-83 604,-8 8,-8"/>
<text text-anchor="middle" x="306" y="-67.8" font-family="Times,serif" font-size="14.00">NASALib</text>
</g>
<g id="clust3" class="cluster">
<title>cluster_PVS Prelude</title>
<polygon fill="none" stroke="black" points="612,-8 612,-83 700,-83 700,-8 612,-8"/>
<text text-anchor="middle" x="656" y="-67.8" font-family="Times,serif" font-size="14.00">PVS Prelude</text>
</g>
<!-- /Users/mmoscato/nasa/cpr/gitlab_github/PVS/framac_wp -->
<g id="node1" class="node">
<title>/Users/mmoscato/nasa/cpr/gitlab_github/PVS/framac_wp</title>
<polygon fill="#f7e28d" stroke="black" points="533,-135 455,-135 455,-99 533,-99 533,-135"/>
<text text-anchor="middle" x="494" y="-113.3" font-family="Times,serif" font-size="14.00">framac_wp</text>
</g>
<!-- /Users/mmoscato/nasa/pvslib/pvslib&#45;github/analysis -->
<g id="node6" class="node">
<title>/Users/mmoscato/nasa/pvslib/pvslib&#45;github/analysis</title>
<polygon fill="#fcfcd7" stroke="black" points="524,-52 464,-52 464,-16 524,-16 524,-52"/>
<text text-anchor="middle" x="494" y="-30.3" font-family="Times,serif" font-size="14.00">analysis</text>
</g>
<!-- /Users/mmoscato/nasa/cpr/gitlab_github/PVS/framac_wp&#45;&gt;/Users/mmoscato/nasa/pvslib/pvslib&#45;github/analysis -->
<g id="edge1" class="edge">
<title>/Users/mmoscato/nasa/cpr/gitlab_github/PVS/framac_wp&#45;&gt;/Users/mmoscato/nasa/pvslib/pvslib&#45;github/analysis</title>
<path fill="none" stroke="black" d="M504,-98.99C504,-98.99 504,-62.26 504,-62.26"/>
<polygon fill="black" stroke="black" points="507.5,-62.26 504,-52.26 500.5,-62.26 507.5,-62.26"/>
</g>
<!-- /Users/mmoscato/nasa/pvslib/pvslib&#45;github/float -->
<g id="node7" class="node">
<title>/Users/mmoscato/nasa/pvslib/pvslib&#45;github/float</title>
<polygon fill="#fcfcd7" stroke="black" points="596,-52 542,-52 542,-16 596,-16 596,-52"/>
<text text-anchor="middle" x="569" y="-30.3" font-family="Times,serif" font-size="14.00">float</text>
</g>
<!-- /Users/mmoscato/nasa/cpr/gitlab_github/PVS/framac_wp&#45;&gt;/Users/mmoscato/nasa/pvslib/pvslib&#45;github/float -->
<g id="edge2" class="edge">
<title>/Users/mmoscato/nasa/cpr/gitlab_github/PVS/framac_wp&#45;&gt;/Users/mmoscato/nasa/pvslib/pvslib&#45;github/float</title>
<path fill="none" stroke="black" d="M528.5,-98.99C528.5,-72.98 528.5,-28 528.5,-28 528.5,-28 531.76,-28 531.76,-28"/>
<polygon fill="black" stroke="black" points="531.76,-31.5 541.76,-28 531.76,-24.5 531.76,-31.5"/>
</g>
<!-- /Users/mmoscato/nasa/pvslib/pvslib&#45;github/ints -->
<g id="node8" class="node">
<title>/Users/mmoscato/nasa/pvslib/pvslib&#45;github/ints</title>
<polygon fill="#fcfcd7" stroke="black" points="70,-52 16,-52 16,-16 70,-16 70,-52"/>
<text text-anchor="middle" x="43" y="-30.3" font-family="Times,serif" font-size="14.00">ints</text>
</g>
<!-- /Users/mmoscato/nasa/cpr/gitlab_github/PVS/framac_wp&#45;&gt;/Users/mmoscato/nasa/pvslib/pvslib&#45;github/ints -->
<g id="edge3" class="edge">
<title>/Users/mmoscato/nasa/cpr/gitlab_github/PVS/framac_wp&#45;&gt;/Users/mmoscato/nasa/pvslib/pvslib&#45;github/ints</title>
<path fill="none" stroke="black" d="M454.85,-121C346.11,-121 48.4,-121 48.4,-121 48.4,-121 48.4,-62.03 48.4,-62.03"/>
<polygon fill="black" stroke="black" points="51.9,-62.03 48.4,-52.03 44.9,-62.03 51.9,-62.03"/>
</g>
<!-- /Users/mmoscato/nasa/pvslib/pvslib&#45;github/lnexp -->
<g id="node9" class="node">
<title>/Users/mmoscato/nasa/pvslib/pvslib&#45;github/lnexp</title>
<polygon fill="#fcfcd7" stroke="black" points="286,-52 232,-52 232,-16 286,-16 286,-52"/>
<text text-anchor="middle" x="259" y="-30.3" font-family="Times,serif" font-size="14.00">lnexp</text>
</g>
<!-- /Users/mmoscato/nasa/cpr/gitlab_github/PVS/framac_wp&#45;&gt;/Users/mmoscato/nasa/pvslib/pvslib&#45;github/lnexp -->
<g id="edge4" class="edge">
<title>/Users/mmoscato/nasa/cpr/gitlab_github/PVS/framac_wp&#45;&gt;/Users/mmoscato/nasa/pvslib/pvslib&#45;github/lnexp</title>
<path fill="none" stroke="black" d="M454.77,-108C390.6,-108 270.25,-108 270.25,-108 270.25,-108 270.25,-62.29 270.25,-62.29"/>
<polygon fill="black" stroke="black" points="273.75,-62.29 270.25,-52.29 266.75,-62.29 273.75,-62.29"/>
</g>
<!-- /Users/mmoscato/nasa/pvslib/pvslib&#45;github/power -->
<g id="node10" class="node">
<title>/Users/mmoscato/nasa/pvslib/pvslib&#45;github/power</title>
<polygon fill="#fcfcd7" stroke="black" points="142,-52 88,-52 88,-16 142,-16 142,-52"/>
<text text-anchor="middle" x="115" y="-30.3" font-family="Times,serif" font-size="14.00">power</text>
</g>
<!-- /Users/mmoscato/nasa/cpr/gitlab_github/PVS/framac_wp&#45;&gt;/Users/mmoscato/nasa/pvslib/pvslib&#45;github/power -->
<g id="edge5" class="edge">
<title>/Users/mmoscato/nasa/cpr/gitlab_github/PVS/framac_wp&#45;&gt;/Users/mmoscato/nasa/pvslib/pvslib&#45;github/power</title>
<path fill="none" stroke="black" d="M454.72,-117C358.8,-117 120.4,-117 120.4,-117 120.4,-117 120.4,-62.01 120.4,-62.01"/>
<polygon fill="black" stroke="black" points="123.9,-62.01 120.4,-52.01 116.9,-62.01 123.9,-62.01"/>
</g>
<!-- /Users/mmoscato/nasa/pvslib/pvslib&#45;github/reals -->
<g id="node11" class="node">
<title>/Users/mmoscato/nasa/pvslib/pvslib&#45;github/reals</title>
<polygon fill="#fcfcd7" stroke="black" points="214,-52 160,-52 160,-16 214,-16 214,-52"/>
<text text-anchor="middle" x="187" y="-30.3" font-family="Times,serif" font-size="14.00">reals</text>
</g>
<!-- /Users/mmoscato/nasa/cpr/gitlab_github/PVS/framac_wp&#45;&gt;/Users/mmoscato/nasa/pvslib/pvslib&#45;github/reals -->
<g id="edge6" class="edge">
<title>/Users/mmoscato/nasa/cpr/gitlab_github/PVS/framac_wp&#45;&gt;/Users/mmoscato/nasa/pvslib/pvslib&#45;github/reals</title>
<path fill="none" stroke="black" d="M454.88,-112C373.27,-112 192.4,-112 192.4,-112 192.4,-112 192.4,-62.09 192.4,-62.09"/>
<polygon fill="black" stroke="black" points="195.9,-62.09 192.4,-52.09 188.9,-62.09 195.9,-62.09"/>
</g>
<!-- /Users/mmoscato/nasa/pvslib/pvslib&#45;github/series -->
<g id="node12" class="node">
<title>/Users/mmoscato/nasa/pvslib/pvslib&#45;github/series</title>
<polygon fill="#fcfcd7" stroke="black" points="358,-52 304,-52 304,-16 358,-16 358,-52"/>
<text text-anchor="middle" x="331" y="-30.3" font-family="Times,serif" font-size="14.00">series</text>
</g>
<!-- /Users/mmoscato/nasa/cpr/gitlab_github/PVS/framac_wp&#45;&gt;/Users/mmoscato/nasa/pvslib/pvslib&#45;github/series -->
<g id="edge7" class="edge">
<title>/Users/mmoscato/nasa/cpr/gitlab_github/PVS/framac_wp&#45;&gt;/Users/mmoscato/nasa/pvslib/pvslib&#45;github/series</title>
<path fill="none" stroke="black" d="M454.73,-103C410.88,-103 346,-103 346,-103 346,-103 346,-62.13 346,-62.13"/>
<polygon fill="black" stroke="black" points="349.5,-62.13 346,-52.13 342.5,-62.13 349.5,-62.13"/>
</g>
<!-- /Users/mmoscato/nasa/pvslib/pvslib&#45;github/structures -->
<g id="node13" class="node">
<title>/Users/mmoscato/nasa/pvslib/pvslib&#45;github/structures</title>
<polygon fill="#fcfcd7" stroke="black" points="445.5,-52 376.5,-52 376.5,-16 445.5,-16 445.5,-52"/>
<text text-anchor="middle" x="411" y="-30.3" font-family="Times,serif" font-size="14.00">structures</text>
</g>
<!-- /Users/mmoscato/nasa/cpr/gitlab_github/PVS/framac_wp&#45;&gt;/Users/mmoscato/nasa/pvslib/pvslib&#45;github/structures -->
<g id="edge8" class="edge">
<title>/Users/mmoscato/nasa/cpr/gitlab_github/PVS/framac_wp&#45;&gt;/Users/mmoscato/nasa/pvslib/pvslib&#45;github/structures</title>
<path fill="none" stroke="black" d="M459.5,-98.82C459.5,-72.01 459.5,-25 459.5,-25 459.5,-25 455.73,-25 455.73,-25"/>
<polygon fill="black" stroke="black" points="455.73,-21.5 445.73,-25 455.73,-28.5 455.73,-21.5"/>
</g>
<!-- /Users/mmoscato/pvs/7.1.0&#45;ix86&#45;MacOSX&#45;allegro/lib/finite_sets -->
<g id="node14" class="node">
<title>/Users/mmoscato/pvs/7.1.0&#45;ix86&#45;MacOSX&#45;allegro/lib/finite_sets</title>
<polygon fill="#fcfcd7" stroke="black" points="691.5,-52 620.5,-52 620.5,-16 691.5,-16 691.5,-52"/>
<text text-anchor="middle" x="656" y="-30.3" font-family="Times,serif" font-size="14.00">finite_sets</text>
</g>
<!-- /Users/mmoscato/nasa/cpr/gitlab_github/PVS/framac_wp&#45;&gt;/Users/mmoscato/pvs/7.1.0&#45;ix86&#45;MacOSX&#45;allegro/lib/finite_sets -->
<g id="edge9" class="edge">
<title>/Users/mmoscato/nasa/cpr/gitlab_github/PVS/framac_wp&#45;&gt;/Users/mmoscato/pvs/7.1.0&#45;ix86&#45;MacOSX&#45;allegro/lib/finite_sets</title>
<path fill="none" stroke="black" d="M533.19,-111C574.82,-111 634.7,-111 634.7,-111 634.7,-111 634.7,-62.25 634.7,-62.25"/>
<polygon fill="black" stroke="black" points="638.2,-62.25 634.7,-52.25 631.2,-62.25 638.2,-62.25"/>
</g>
<!-- /Users/mmoscato/nasa/cpr/gitlab_github/PVS/vc_nb_12 -->
<g id="node2" class="node">
<title>/Users/mmoscato/nasa/cpr/gitlab_github/PVS/vc_nb_12</title>
<polygon fill="#fcfcd7" stroke="black" points="617,-207 547,-207 547,-171 617,-171 617,-207"/>
<text text-anchor="middle" x="582" y="-185.3" font-family="Times,serif" font-size="14.00">vc_nb_12</text>
</g>
<!-- /Users/mmoscato/nasa/cpr/gitlab_github/PVS/vc_nb_12&#45;&gt;/Users/mmoscato/nasa/cpr/gitlab_github/PVS/framac_wp -->
<g id="edge10" class="edge">
<title>/Users/mmoscato/nasa/cpr/gitlab_github/PVS/vc_nb_12&#45;&gt;/Users/mmoscato/nasa/cpr/gitlab_github/PVS/framac_wp</title>
<path fill="none" stroke="black" d="M571.5,-170.97C571.5,-151.42 571.5,-123 571.5,-123 571.5,-123 543.2,-123 543.2,-123"/>
<polygon fill="black" stroke="black" points="543.2,-119.5 533.2,-123 543.2,-126.5 543.2,-119.5"/>
</g>
<!-- /Users/mmoscato/nasa/cpr/gitlab_github/PVS/vc_nb_14 -->
<g id="node3" class="node">
<title>/Users/mmoscato/nasa/cpr/gitlab_github/PVS/vc_nb_14</title>
<polygon fill="#fcfcd7" stroke="black" points="441,-207 371,-207 371,-171 441,-171 441,-207"/>
<text text-anchor="middle" x="406" y="-185.3" font-family="Times,serif" font-size="14.00">vc_nb_14</text>
</g>
<!-- /Users/mmoscato/nasa/cpr/gitlab_github/PVS/vc_nb_14&#45;&gt;/Users/mmoscato/nasa/cpr/gitlab_github/PVS/framac_wp -->
<g id="edge11" class="edge">
<title>/Users/mmoscato/nasa/cpr/gitlab_github/PVS/vc_nb_14&#45;&gt;/Users/mmoscato/nasa/cpr/gitlab_github/PVS/framac_wp</title>
<path fill="none" stroke="black" d="M432.94,-170.98C432.94,-153.63 432.94,-130 432.94,-130 432.94,-130 444.98,-130 444.98,-130"/>
<polygon fill="black" stroke="black" points="444.98,-133.5 454.98,-130 444.98,-126.5 444.98,-133.5"/>
</g>
<!-- /Users/mmoscato/nasa/cpr/gitlab_github/PVS/vc_nb_14&#45;&gt;/Users/mmoscato/nasa/pvslib/pvslib&#45;github/analysis -->
<g id="edge12" class="edge">
<title>/Users/mmoscato/nasa/cpr/gitlab_github/PVS/vc_nb_14&#45;&gt;/Users/mmoscato/nasa/pvslib/pvslib&#45;github/analysis</title>
<path fill="none" stroke="black" d="M441.23,-195C445.66,-195 448.67,-195 448.67,-195 448.67,-195 448.67,-34 448.67,-34 448.67,-34 453.76,-34 453.76,-34"/>
<polygon fill="black" stroke="black" points="453.76,-37.5 463.76,-34 453.76,-30.5 453.76,-37.5"/>
</g>
<!-- /Users/mmoscato/nasa/cpr/gitlab_github/PVS/vc_nb_14&#45;&gt;/Users/mmoscato/nasa/pvslib/pvslib&#45;github/ints -->
<g id="edge13" class="edge">
<title>/Users/mmoscato/nasa/cpr/gitlab_github/PVS/vc_nb_14&#45;&gt;/Users/mmoscato/nasa/pvslib/pvslib&#45;github/ints</title>
<path fill="none" stroke="black" d="M392.62,-170.66C392.62,-141.79 392.62,-89 392.62,-89 392.62,-89 59.2,-89 59.2,-89 59.2,-89 59.2,-62.01 59.2,-62.01"/>
<polygon fill="black" stroke="black" points="62.7,-62.01 59.2,-52.01 55.7,-62.01 62.7,-62.01"/>
</g>
<!-- /Users/mmoscato/nasa/cpr/gitlab_github/PVS/vc_nb_14&#45;&gt;/Users/mmoscato/nasa/pvslib/pvslib&#45;github/lnexp -->
<g id="edge14" class="edge">
<title>/Users/mmoscato/nasa/cpr/gitlab_github/PVS/vc_nb_14&#45;&gt;/Users/mmoscato/nasa/pvslib/pvslib&#45;github/lnexp</title>
<path fill="none" stroke="black" d="M384.56,-170.87C384.56,-160.29 384.56,-149 384.56,-149 384.56,-149 244.75,-149 244.75,-149 244.75,-149 244.75,-62.22 244.75,-62.22"/>
<polygon fill="black" stroke="black" points="248.25,-62.22 244.75,-52.22 241.25,-62.22 248.25,-62.22"/>
</g>
<!-- /Users/mmoscato/nasa/cpr/gitlab_github/PVS/vc_nb_14&#45;&gt;/Users/mmoscato/nasa/pvslib/pvslib&#45;github/power -->
<g id="edge15" class="edge">
<title>/Users/mmoscato/nasa/cpr/gitlab_github/PVS/vc_nb_14&#45;&gt;/Users/mmoscato/nasa/pvslib/pvslib&#45;github/power</title>
<path fill="none" stroke="black" d="M400.69,-170.51C400.69,-139.41 400.69,-80 400.69,-80 400.69,-80 131.2,-80 131.2,-80 131.2,-80 131.2,-62.18 131.2,-62.18"/>
<polygon fill="black" stroke="black" points="134.7,-62.18 131.2,-52.18 127.7,-62.18 134.7,-62.18"/>
</g>
<!-- /Users/mmoscato/nasa/cpr/gitlab_github/PVS/vc_nb_14&#45;&gt;/Users/mmoscato/nasa/pvslib/pvslib&#45;github/reals -->
<g id="edge16" class="edge">
<title>/Users/mmoscato/nasa/cpr/gitlab_github/PVS/vc_nb_14&#45;&gt;/Users/mmoscato/nasa/pvslib/pvslib&#45;github/reals</title>
<path fill="none" stroke="black" d="M416.81,-170.93C416.81,-137.64 416.81,-70 416.81,-70 416.81,-70 203.2,-70 203.2,-70 203.2,-70 203.2,-62.42 203.2,-62.42"/>
<polygon fill="black" stroke="black" points="206.7,-62.42 203.2,-52.42 199.7,-62.42 206.7,-62.42"/>
</g>
<!-- /Users/mmoscato/nasa/cpr/gitlab_github/PVS/vc_nb_14&#45;&gt;/Users/mmoscato/nasa/pvslib/pvslib&#45;github/series -->
<g id="edge17" class="edge">
<title>/Users/mmoscato/nasa/cpr/gitlab_github/PVS/vc_nb_14&#45;&gt;/Users/mmoscato/nasa/pvslib/pvslib&#45;github/series</title>
<path fill="none" stroke="black" d="M370.88,-183C368.29,-183 366.67,-183 366.67,-183 366.67,-183 366.67,-40 366.67,-40 366.67,-40 365.8,-40 365.8,-40"/>
<polygon fill="black" stroke="black" points="368.03,-36.5 358.03,-40 368.03,-43.5 368.03,-36.5"/>
</g>
<!-- /Users/mmoscato/nasa/cpr/gitlab_github/PVS/vc_nb_14&#45;&gt;/Users/mmoscato/nasa/pvslib/pvslib&#45;github/structures -->
<g id="edge18" class="edge">
<title>/Users/mmoscato/nasa/cpr/gitlab_github/PVS/vc_nb_14&#45;&gt;/Users/mmoscato/nasa/pvslib/pvslib&#45;github/structures</title>
<path fill="none" stroke="black" d="M424.88,-170.92C424.88,-170.92 424.88,-62.45 424.88,-62.45"/>
<polygon fill="black" stroke="black" points="428.38,-62.45 424.88,-52.45 421.38,-62.45 428.38,-62.45"/>
</g>
<!-- /Users/mmoscato/nasa/cpr/gitlab_github/PVS/vc_nb_14&#45;&gt;/Users/mmoscato/pvs/7.1.0&#45;ix86&#45;MacOSX&#45;allegro/lib/finite_sets -->
<g id="edge19" class="edge">
<title>/Users/mmoscato/nasa/cpr/gitlab_github/PVS/vc_nb_14&#45;&gt;/Users/mmoscato/pvs/7.1.0&#45;ix86&#45;MacOSX&#45;allegro/lib/finite_sets</title>
<path fill="none" stroke="black" d="M408.75,-170.58C408.75,-161.72 408.75,-153 408.75,-153 408.75,-153 663.1,-153 663.1,-153 663.1,-153 663.1,-62.07 663.1,-62.07"/>
<polygon fill="black" stroke="black" points="666.6,-62.07 663.1,-52.07 659.6,-62.07 666.6,-62.07"/>
</g>
<!-- /Users/mmoscato/nasa/cpr/gitlab_github/PVS/vc_nb_17 -->
<g id="node4" class="node">
<title>/Users/mmoscato/nasa/cpr/gitlab_github/PVS/vc_nb_17</title>
<polygon fill="#fcfcd7" stroke="black" points="529,-207 459,-207 459,-171 529,-171 529,-207"/>
<text text-anchor="middle" x="494" y="-185.3" font-family="Times,serif" font-size="14.00">vc_nb_17</text>
</g>
<!-- /Users/mmoscato/nasa/cpr/gitlab_github/PVS/vc_nb_17&#45;&gt;/Users/mmoscato/nasa/cpr/gitlab_github/PVS/framac_wp -->
<g id="edge20" class="edge">
<title>/Users/mmoscato/nasa/cpr/gitlab_github/PVS/vc_nb_17&#45;&gt;/Users/mmoscato/nasa/cpr/gitlab_github/PVS/framac_wp</title>
<path fill="none" stroke="black" d="M511.5,-170.83C511.5,-170.83 511.5,-145.41 511.5,-145.41"/>
<polygon fill="black" stroke="black" points="515,-145.41 511.5,-135.41 508,-145.41 515,-145.41"/>
</g>
<!-- /Users/mmoscato/nasa/cpr/gitlab_github/PVS/vc_nb_17&#45;&gt;/Users/mmoscato/nasa/pvslib/pvslib&#45;github/analysis -->
<g id="edge21" class="edge">
<title>/Users/mmoscato/nasa/cpr/gitlab_github/PVS/vc_nb_17&#45;&gt;/Users/mmoscato/nasa/pvslib/pvslib&#45;github/analysis</title>
<path fill="none" stroke="black" d="M529.11,-189C534.06,-189 537.5,-189 537.5,-189 537.5,-189 537.5,-40 537.5,-40 537.5,-40 534.21,-40 534.21,-40"/>
<polygon fill="black" stroke="black" points="534.21,-36.5 524.21,-40 534.21,-43.5 534.21,-36.5"/>
</g>
<!-- /Users/mmoscato/nasa/cpr/gitlab_github/PVS/vc_nb_17&#45;&gt;/Users/mmoscato/nasa/pvslib/pvslib&#45;github/ints -->
<g id="edge22" class="edge">
<title>/Users/mmoscato/nasa/cpr/gitlab_github/PVS/vc_nb_17&#45;&gt;/Users/mmoscato/nasa/pvslib/pvslib&#45;github/ints</title>
<path fill="none" stroke="black" d="M467.75,-170.83C467.75,-168.55 467.75,-167 467.75,-167 467.75,-167 37.6,-167 37.6,-167 37.6,-167 37.6,-62.21 37.6,-62.21"/>
<polygon fill="black" stroke="black" points="41.1,-62.21 37.6,-52.21 34.1,-62.21 41.1,-62.21"/>
</g>
<!-- /Users/mmoscato/nasa/cpr/gitlab_github/PVS/vc_nb_17&#45;&gt;/Users/mmoscato/nasa/pvslib/pvslib&#45;github/lnexp -->
<g id="edge23" class="edge">
<title>/Users/mmoscato/nasa/cpr/gitlab_github/PVS/vc_nb_17&#45;&gt;/Users/mmoscato/nasa/pvslib/pvslib&#45;github/lnexp</title>
<path fill="none" stroke="black" d="M494,-170.85C494,-158.73 494,-145 494,-145 494,-145 257.5,-145 257.5,-145 257.5,-145 257.5,-62.33 257.5,-62.33"/>
<polygon fill="black" stroke="black" points="261,-62.33 257.5,-52.33 254,-62.33 261,-62.33"/>
</g>
<!-- /Users/mmoscato/nasa/cpr/gitlab_github/PVS/vc_nb_17&#45;&gt;/Users/mmoscato/nasa/pvslib/pvslib&#45;github/power -->
<g id="edge24" class="edge">
<title>/Users/mmoscato/nasa/cpr/gitlab_github/PVS/vc_nb_17&#45;&gt;/Users/mmoscato/nasa/pvslib/pvslib&#45;github/power</title>
<path fill="none" stroke="black" d="M476.5,-170.94C476.5,-166.51 476.5,-163 476.5,-163 476.5,-163 109.6,-163 109.6,-163 109.6,-163 109.6,-62.21 109.6,-62.21"/>
<polygon fill="black" stroke="black" points="113.1,-62.21 109.6,-52.21 106.1,-62.21 113.1,-62.21"/>
</g>
<!-- /Users/mmoscato/nasa/cpr/gitlab_github/PVS/vc_nb_17&#45;&gt;/Users/mmoscato/nasa/pvslib/pvslib&#45;github/reals -->
<g id="edge25" class="edge">
<title>/Users/mmoscato/nasa/cpr/gitlab_github/PVS/vc_nb_17&#45;&gt;/Users/mmoscato/nasa/pvslib/pvslib&#45;github/reals</title>
<path fill="none" stroke="black" d="M485.25,-170.8C485.25,-164.97 485.25,-160 485.25,-160 485.25,-160 181.6,-160 181.6,-160 181.6,-160 181.6,-62.05 181.6,-62.05"/>
<polygon fill="black" stroke="black" points="185.1,-62.05 181.6,-52.05 178.1,-62.05 185.1,-62.05"/>
</g>
<!-- /Users/mmoscato/nasa/cpr/gitlab_github/PVS/vc_nb_17&#45;&gt;/Users/mmoscato/nasa/pvslib/pvslib&#45;github/series -->
<g id="edge26" class="edge">
<title>/Users/mmoscato/nasa/cpr/gitlab_github/PVS/vc_nb_17&#45;&gt;/Users/mmoscato/nasa/pvslib/pvslib&#45;github/series</title>
<path fill="none" stroke="black" d="M502.75,-170.96C502.75,-157.71 502.75,-142 502.75,-142 502.75,-142 332,-142 332,-142 332,-142 332,-62.32 332,-62.32"/>
<polygon fill="black" stroke="black" points="335.5,-62.32 332,-52.32 328.5,-62.32 335.5,-62.32"/>
</g>
<!-- /Users/mmoscato/nasa/cpr/gitlab_github/PVS/vc_nb_17&#45;&gt;/Users/mmoscato/nasa/pvslib/pvslib&#45;github/structures -->
<g id="edge27" class="edge">
<title>/Users/mmoscato/nasa/cpr/gitlab_github/PVS/vc_nb_17&#45;&gt;/Users/mmoscato/nasa/pvslib/pvslib&#45;github/structures</title>
<path fill="none" stroke="black" d="M458.8,-183C454.64,-183 451.83,-183 451.83,-183 451.83,-183 451.83,-43 451.83,-43 451.83,-43 451.23,-43 451.23,-43"/>
<polygon fill="black" stroke="black" points="455.81,-39.5 445.81,-43 455.81,-46.5 455.81,-39.5"/>
</g>
<!-- /Users/mmoscato/nasa/cpr/gitlab_github/PVS/vc_nb_17&#45;&gt;/Users/mmoscato/pvs/7.1.0&#45;ix86&#45;MacOSX&#45;allegro/lib/finite_sets -->
<g id="edge28" class="edge">
<title>/Users/mmoscato/nasa/cpr/gitlab_github/PVS/vc_nb_17&#45;&gt;/Users/mmoscato/pvs/7.1.0&#45;ix86&#45;MacOSX&#45;allegro/lib/finite_sets</title>
<path fill="none" stroke="black" d="M520.25,-170.96C520.25,-163.25 520.25,-156 520.25,-156 520.25,-156 677.3,-156 677.3,-156 677.3,-156 677.3,-62 677.3,-62"/>
<polygon fill="black" stroke="black" points="680.8,-62 677.3,-52 673.8,-62 680.8,-62"/>
</g>
<!-- /Users/mmoscato/nasa/cpr/gitlab_github/PVS/vc_nb_19 -->
<g id="node5" class="node">
<title>/Users/mmoscato/nasa/cpr/gitlab_github/PVS/vc_nb_19</title>
<polygon fill="#fcfcd7" stroke="black" points="353,-207 283,-207 283,-171 353,-171 353,-207"/>
<text text-anchor="middle" x="318" y="-185.3" font-family="Times,serif" font-size="14.00">vc_nb_19</text>
</g>
<!-- /Users/mmoscato/nasa/cpr/gitlab_github/PVS/vc_nb_19&#45;&gt;/Users/mmoscato/nasa/cpr/gitlab_github/PVS/framac_wp -->
<g id="edge29" class="edge">
<title>/Users/mmoscato/nasa/cpr/gitlab_github/PVS/vc_nb_19&#45;&gt;/Users/mmoscato/nasa/cpr/gitlab_github/PVS/framac_wp</title>
<path fill="none" stroke="black" d="M339,-170.78C339,-152.17 339,-126 339,-126 339,-126 444.89,-126 444.89,-126"/>
<polygon fill="black" stroke="black" points="444.89,-129.5 454.89,-126 444.89,-122.5 444.89,-129.5"/>
</g>
<!-- /Users/mmoscato/nasa/cpr/gitlab_github/PVS/vc_nb_19&#45;&gt;/Users/mmoscato/nasa/pvslib/pvslib&#45;github/analysis -->
<g id="edge30" class="edge">
<title>/Users/mmoscato/nasa/cpr/gitlab_github/PVS/vc_nb_19&#45;&gt;/Users/mmoscato/nasa/pvslib/pvslib&#45;github/analysis</title>
<path fill="none" stroke="black" d="M325,-170.93C325,-135.65 325,-61 325,-61 325,-61 484,-61 484,-61 484,-61 484,-60.12 484,-60.12"/>
<polygon fill="black" stroke="black" points="487.5,-62.16 484,-52.16 480.5,-62.16 487.5,-62.16"/>
</g>
<!-- /Users/mmoscato/nasa/cpr/gitlab_github/PVS/vc_nb_19&#45;&gt;/Users/mmoscato/nasa/pvslib/pvslib&#45;github/ints -->
<g id="edge31" class="edge">
<title>/Users/mmoscato/nasa/cpr/gitlab_github/PVS/vc_nb_19&#45;&gt;/Users/mmoscato/nasa/pvslib/pvslib&#45;github/ints</title>
<path fill="none" stroke="black" d="M282.87,-198C205.42,-198 26.8,-198 26.8,-198 26.8,-198 26.8,-62.18 26.8,-62.18"/>
<polygon fill="black" stroke="black" points="30.3,-62.18 26.8,-52.18 23.3,-62.18 30.3,-62.18"/>
</g>
<!-- /Users/mmoscato/nasa/cpr/gitlab_github/PVS/vc_nb_19&#45;&gt;/Users/mmoscato/nasa/pvslib/pvslib&#45;github/lnexp -->
<g id="edge32" class="edge">
<title>/Users/mmoscato/nasa/cpr/gitlab_github/PVS/vc_nb_19&#45;&gt;/Users/mmoscato/nasa/pvslib/pvslib&#45;github/lnexp</title>
<path fill="none" stroke="black" d="M295,-170.92C295,-130.03 295,-34 295,-34 295,-34 294.13,-34 294.13,-34"/>
<polygon fill="black" stroke="black" points="296.29,-30.5 286.29,-34 296.29,-37.5 296.29,-30.5"/>
</g>
<!-- /Users/mmoscato/nasa/cpr/gitlab_github/PVS/vc_nb_19&#45;&gt;/Users/mmoscato/nasa/pvslib/pvslib&#45;github/power -->
<g id="edge33" class="edge">
<title>/Users/mmoscato/nasa/cpr/gitlab_github/PVS/vc_nb_19&#45;&gt;/Users/mmoscato/nasa/pvslib/pvslib&#45;github/power</title>
<path fill="none" stroke="black" d="M282.78,-189C220.82,-189 98.8,-189 98.8,-189 98.8,-189 98.8,-62.08 98.8,-62.08"/>
<polygon fill="black" stroke="black" points="102.3,-62.08 98.8,-52.08 95.3,-62.08 102.3,-62.08"/>
</g>
<!-- /Users/mmoscato/nasa/cpr/gitlab_github/PVS/vc_nb_19&#45;&gt;/Users/mmoscato/nasa/pvslib/pvslib&#45;github/reals -->
<g id="edge34" class="edge">
<title>/Users/mmoscato/nasa/cpr/gitlab_github/PVS/vc_nb_19&#45;&gt;/Users/mmoscato/nasa/pvslib/pvslib&#45;github/reals</title>
<path fill="none" stroke="black" d="M282.74,-180C239.19,-180 170.8,-180 170.8,-180 170.8,-180 170.8,-62.2 170.8,-62.2"/>
<polygon fill="black" stroke="black" points="174.3,-62.2 170.8,-52.2 167.3,-62.2 174.3,-62.2"/>
</g>
<!-- /Users/mmoscato/nasa/cpr/gitlab_github/PVS/vc_nb_19&#45;&gt;/Users/mmoscato/nasa/pvslib/pvslib&#45;github/series -->
<g id="edge35" class="edge">
<title>/Users/mmoscato/nasa/cpr/gitlab_github/PVS/vc_nb_19&#45;&gt;/Users/mmoscato/nasa/pvslib/pvslib&#45;github/series</title>
<path fill="none" stroke="black" d="M318,-170.92C318,-170.92 318,-62.45 318,-62.45"/>
<polygon fill="black" stroke="black" points="321.5,-62.45 318,-52.45 314.5,-62.45 321.5,-62.45"/>
</g>
<!-- /Users/mmoscato/nasa/cpr/gitlab_github/PVS/vc_nb_19&#45;&gt;/Users/mmoscato/nasa/pvslib/pvslib&#45;github/structures -->
<g id="edge36" class="edge">
<title>/Users/mmoscato/nasa/cpr/gitlab_github/PVS/vc_nb_19&#45;&gt;/Users/mmoscato/nasa/pvslib/pvslib&#45;github/structures</title>
<path fill="none" stroke="black" d="M353.36,-195C358.63,-195 362.33,-195 362.33,-195 362.33,-195 362.33,-28 362.33,-28 362.33,-28 366.41,-28 366.41,-28"/>
<polygon fill="black" stroke="black" points="366.41,-31.5 376.41,-28 366.41,-24.5 366.41,-31.5"/>
</g>
<!-- /Users/mmoscato/nasa/cpr/gitlab_github/PVS/vc_nb_19&#45;&gt;/Users/mmoscato/pvs/7.1.0&#45;ix86&#45;MacOSX&#45;allegro/lib/finite_sets -->
<g id="edge37" class="edge">
<title>/Users/mmoscato/nasa/cpr/gitlab_github/PVS/vc_nb_19&#45;&gt;/Users/mmoscato/pvs/7.1.0&#45;ix86&#45;MacOSX&#45;allegro/lib/finite_sets</title>
<path fill="none" stroke="black" d="M311,-170.88C311,-156.22 311,-138 311,-138 311,-138 648.9,-138 648.9,-138 648.9,-138 648.9,-62.12 648.9,-62.12"/>
<polygon fill="black" stroke="black" points="652.4,-62.12 648.9,-52.12 645.4,-62.12 652.4,-62.12"/>
</g>
</g>
</svg>
