<?xml version="1.0" encoding="UTF-8" standalone="no"?>
<!DOCTYPE svg PUBLIC "-//W3C//DTD SVG 1.1//EN"
 "http://www.w3.org/Graphics/SVG/1.1/DTD/svg11.dtd">
<!-- Generated by graphviz version 2.44.1 (20200629.0846)
 -->
<!-- Title: vc_nb_17 Pages: 1 -->
<svg width="1090pt" height="254pt"
 viewBox="0.00 0.00 1090.00 254.00" xmlns="http://www.w3.org/2000/svg" xmlns:xlink="http://www.w3.org/1999/xlink">
<g id="graph0" class="graph" transform="scale(1 1) rotate(0) translate(4 250)">
<title>vc_nb_17</title>
<polygon fill="white" stroke="transparent" points="-4,4 -4,-250 1086,-250 1086,4 -4,4"/>
<g id="clust1" class="cluster">
<title>cluster_CPR</title>
<polygon fill="none" stroke="black" points="596,-91 596,-238 762,-238 762,-91 596,-91"/>
<text text-anchor="middle" x="679" y="-222.8" font-family="Times,serif" font-size="14.00">CPR</text>
</g>
<g id="clust2" class="cluster">
<title>cluster_NASALib</title>
<polygon fill="none" stroke="black" points="8,-8 8,-83 978,-83 978,-8 8,-8"/>
<text text-anchor="middle" x="493" y="-67.8" font-family="Times,serif" font-size="14.00">NASALib</text>
</g>
<g id="clust3" class="cluster">
<title>cluster_PVS Prelude</title>
<polygon fill="none" stroke="black" points="986,-8 986,-83 1074,-83 1074,-8 986,-8"/>
<text text-anchor="middle" x="1030" y="-67.8" font-family="Times,serif" font-size="14.00">PVS Prelude</text>
</g>
<!-- /Users/mmoscato/nasa/cpr/gitlab_github/PVS/CPR -->
<g id="node1" class="node">
<title>/Users/mmoscato/nasa/cpr/gitlab_github/PVS/CPR</title>
<polygon fill="#fcfcd7" stroke="black" points="658,-135 604,-135 604,-99 658,-99 658,-135"/>
<text text-anchor="middle" x="631" y="-113.3" font-family="Times,serif" font-size="14.00">CPR</text>
</g>
<!-- /Users/mmoscato/nasa/pvslib/pvslib&#45;github/Sturm -->
<g id="node4" class="node">
<title>/Users/mmoscato/nasa/pvslib/pvslib&#45;github/Sturm</title>
<polygon fill="#fcfcd7" stroke="black" points="214,-52 160,-52 160,-16 214,-16 214,-52"/>
<text text-anchor="middle" x="187" y="-30.3" font-family="Times,serif" font-size="14.00">Sturm</text>
</g>
<!-- /Users/mmoscato/nasa/cpr/gitlab_github/PVS/CPR&#45;&gt;/Users/mmoscato/nasa/pvslib/pvslib&#45;github/Sturm -->
<g id="edge1" class="edge">
<title>/Users/mmoscato/nasa/cpr/gitlab_github/PVS/CPR&#45;&gt;/Users/mmoscato/nasa/pvslib/pvslib&#45;github/Sturm</title>
<path fill="none" stroke="black" d="M603.79,-119C508.56,-119 196,-119 196,-119 196,-119 196,-62.03 196,-62.03"/>
<polygon fill="black" stroke="black" points="199.5,-62.03 196,-52.03 192.5,-62.03 199.5,-62.03"/>
</g>
<!-- /Users/mmoscato/nasa/pvslib/pvslib&#45;github/analysis -->
<g id="node5" class="node">
<title>/Users/mmoscato/nasa/pvslib/pvslib&#45;github/analysis</title>
<polygon fill="#fcfcd7" stroke="black" points="898,-52 838,-52 838,-16 898,-16 898,-52"/>
<text text-anchor="middle" x="868" y="-30.3" font-family="Times,serif" font-size="14.00">analysis</text>
</g>
<!-- /Users/mmoscato/nasa/cpr/gitlab_github/PVS/CPR&#45;&gt;/Users/mmoscato/nasa/pvslib/pvslib&#45;github/analysis -->
<g id="edge2" class="edge">
<title>/Users/mmoscato/nasa/cpr/gitlab_github/PVS/CPR&#45;&gt;/Users/mmoscato/nasa/pvslib/pvslib&#45;github/analysis</title>
<path fill="none" stroke="black" d="M632,-98.87C632,-88.69 632,-78 632,-78 632,-78 853,-78 853,-78 853,-78 853,-62.15 853,-62.15"/>
<polygon fill="black" stroke="black" points="856.5,-62.15 853,-52.15 849.5,-62.15 856.5,-62.15"/>
</g>
<!-- /Users/mmoscato/nasa/pvslib/pvslib&#45;github/exact_real_arith -->
<g id="node6" class="node">
<title>/Users/mmoscato/nasa/pvslib/pvslib&#45;github/exact_real_arith</title>
<polygon fill="#fcfcd7" stroke="black" points="336,-52 232,-52 232,-16 336,-16 336,-52"/>
<text text-anchor="middle" x="284" y="-30.3" font-family="Times,serif" font-size="14.00">exact_real_arith</text>
</g>
<!-- /Users/mmoscato/nasa/cpr/gitlab_github/PVS/CPR&#45;&gt;/Users/mmoscato/nasa/pvslib/pvslib&#45;github/exact_real_arith -->
<g id="edge3" class="edge">
<title>/Users/mmoscato/nasa/cpr/gitlab_github/PVS/CPR&#45;&gt;/Users/mmoscato/nasa/pvslib/pvslib&#45;github/exact_real_arith</title>
<path fill="none" stroke="black" d="M603.74,-114C524.76,-114 301.33,-114 301.33,-114 301.33,-114 301.33,-62.15 301.33,-62.15"/>
<polygon fill="black" stroke="black" points="304.83,-62.15 301.33,-52.15 297.83,-62.15 304.83,-62.15"/>
</g>
<!-- /Users/mmoscato/nasa/pvslib/pvslib&#45;github/interval_arith -->
<g id="node7" class="node">
<title>/Users/mmoscato/nasa/pvslib/pvslib&#45;github/interval_arith</title>
<polygon fill="#fcfcd7" stroke="black" points="443.5,-52 354.5,-52 354.5,-16 443.5,-16 443.5,-52"/>
<text text-anchor="middle" x="399" y="-30.3" font-family="Times,serif" font-size="14.00">interval_arith</text>
</g>
<!-- /Users/mmoscato/nasa/cpr/gitlab_github/PVS/CPR&#45;&gt;/Users/mmoscato/nasa/pvslib/pvslib&#45;github/interval_arith -->
<g id="edge4" class="edge">
<title>/Users/mmoscato/nasa/cpr/gitlab_github/PVS/CPR&#45;&gt;/Users/mmoscato/nasa/pvslib/pvslib&#45;github/interval_arith</title>
<path fill="none" stroke="black" d="M603.93,-109C545.72,-109 413.83,-109 413.83,-109 413.83,-109 413.83,-62.16 413.83,-62.16"/>
<polygon fill="black" stroke="black" points="417.33,-62.16 413.83,-52.16 410.33,-62.16 417.33,-62.16"/>
</g>
<!-- /Users/mmoscato/nasa/pvslib/pvslib&#45;github/ints -->
<g id="node8" class="node">
<title>/Users/mmoscato/nasa/pvslib/pvslib&#45;github/ints</title>
<polygon fill="#fcfcd7" stroke="black" points="588,-52 534,-52 534,-16 588,-16 588,-52"/>
<text text-anchor="middle" x="561" y="-30.3" font-family="Times,serif" font-size="14.00">ints</text>
</g>
<!-- /Users/mmoscato/nasa/cpr/gitlab_github/PVS/CPR&#45;&gt;/Users/mmoscato/nasa/pvslib/pvslib&#45;github/ints -->
<g id="edge5" class="edge">
<title>/Users/mmoscato/nasa/cpr/gitlab_github/PVS/CPR&#45;&gt;/Users/mmoscato/nasa/pvslib/pvslib&#45;github/ints</title>
<path fill="none" stroke="black" d="M603.74,-104C584.08,-104 561,-104 561,-104 561,-104 561,-62.03 561,-62.03"/>
<polygon fill="black" stroke="black" points="564.5,-62.03 561,-52.03 557.5,-62.03 564.5,-62.03"/>
</g>
<!-- /Users/mmoscato/nasa/pvslib/pvslib&#45;github/lnexp -->
<g id="node9" class="node">
<title>/Users/mmoscato/nasa/pvslib/pvslib&#45;github/lnexp</title>
<polygon fill="#fcfcd7" stroke="black" points="660,-52 606,-52 606,-16 660,-16 660,-52"/>
<text text-anchor="middle" x="633" y="-30.3" font-family="Times,serif" font-size="14.00">lnexp</text>
</g>
<!-- /Users/mmoscato/nasa/cpr/gitlab_github/PVS/CPR&#45;&gt;/Users/mmoscato/nasa/pvslib/pvslib&#45;github/lnexp -->
<g id="edge6" class="edge">
<title>/Users/mmoscato/nasa/cpr/gitlab_github/PVS/CPR&#45;&gt;/Users/mmoscato/nasa/pvslib/pvslib&#45;github/lnexp</title>
<path fill="none" stroke="black" d="M614.67,-98.99C614.67,-98.99 614.67,-62.26 614.67,-62.26"/>
<polygon fill="black" stroke="black" points="618.17,-62.26 614.67,-52.26 611.17,-62.26 618.17,-62.26"/>
</g>
<!-- /Users/mmoscato/nasa/pvslib/pvslib&#45;github/orders -->
<g id="node10" class="node">
<title>/Users/mmoscato/nasa/pvslib/pvslib&#45;github/orders</title>
<polygon fill="#fcfcd7" stroke="black" points="70,-52 16,-52 16,-16 70,-16 70,-52"/>
<text text-anchor="middle" x="43" y="-30.3" font-family="Times,serif" font-size="14.00">orders</text>
</g>
<!-- /Users/mmoscato/nasa/cpr/gitlab_github/PVS/CPR&#45;&gt;/Users/mmoscato/nasa/pvslib/pvslib&#45;github/orders -->
<g id="edge7" class="edge">
<title>/Users/mmoscato/nasa/cpr/gitlab_github/PVS/CPR&#45;&gt;/Users/mmoscato/nasa/pvslib/pvslib&#45;github/orders</title>
<path fill="none" stroke="black" d="M603.85,-129C489.38,-129 52,-129 52,-129 52,-129 52,-62.32 52,-62.32"/>
<polygon fill="black" stroke="black" points="55.5,-62.32 52,-52.32 48.5,-62.32 55.5,-62.32"/>
</g>
<!-- /Users/mmoscato/nasa/pvslib/pvslib&#45;github/reals -->
<g id="node12" class="node">
<title>/Users/mmoscato/nasa/pvslib/pvslib&#45;github/reals</title>
<polygon fill="#fcfcd7" stroke="black" points="820,-52 766,-52 766,-16 820,-16 820,-52"/>
<text text-anchor="middle" x="793" y="-30.3" font-family="Times,serif" font-size="14.00">reals</text>
</g>
<!-- /Users/mmoscato/nasa/cpr/gitlab_github/PVS/CPR&#45;&gt;/Users/mmoscato/nasa/pvslib/pvslib&#45;github/reals -->
<g id="edge8" class="edge">
<title>/Users/mmoscato/nasa/cpr/gitlab_github/PVS/CPR&#45;&gt;/Users/mmoscato/nasa/pvslib/pvslib&#45;github/reals</title>
<path fill="none" stroke="black" d="M623.33,-98.81C623.33,-83.82 623.33,-65 623.33,-65 623.33,-65 779.5,-65 779.5,-65 779.5,-65 779.5,-62.03 779.5,-62.03"/>
<polygon fill="black" stroke="black" points="783,-62.03 779.5,-52.03 776,-62.03 783,-62.03"/>
</g>
<!-- /Users/mmoscato/nasa/pvslib/pvslib&#45;github/series -->
<g id="node13" class="node">
<title>/Users/mmoscato/nasa/pvslib/pvslib&#45;github/series</title>
<polygon fill="#fcfcd7" stroke="black" points="970,-52 916,-52 916,-16 970,-16 970,-52"/>
<text text-anchor="middle" x="943" y="-30.3" font-family="Times,serif" font-size="14.00">series</text>
</g>
<!-- /Users/mmoscato/nasa/cpr/gitlab_github/PVS/CPR&#45;&gt;/Users/mmoscato/nasa/pvslib/pvslib&#45;github/series -->
<g id="edge9" class="edge">
<title>/Users/mmoscato/nasa/cpr/gitlab_github/PVS/CPR&#45;&gt;/Users/mmoscato/nasa/pvslib/pvslib&#45;github/series</title>
<path fill="none" stroke="black" d="M640.67,-98.76C640.67,-91.57 640.67,-85 640.67,-85 640.67,-85 929.5,-85 929.5,-85 929.5,-85 929.5,-62.12 929.5,-62.12"/>
<polygon fill="black" stroke="black" points="933,-62.12 929.5,-52.12 926,-62.12 933,-62.12"/>
</g>
<!-- /Users/mmoscato/nasa/pvslib/pvslib&#45;github/structures -->
<g id="node14" class="node">
<title>/Users/mmoscato/nasa/pvslib/pvslib&#45;github/structures</title>
<polygon fill="#fcfcd7" stroke="black" points="747.5,-52 678.5,-52 678.5,-16 747.5,-16 747.5,-52"/>
<text text-anchor="middle" x="713" y="-30.3" font-family="Times,serif" font-size="14.00">structures</text>
</g>
<!-- /Users/mmoscato/nasa/cpr/gitlab_github/PVS/CPR&#45;&gt;/Users/mmoscato/nasa/pvslib/pvslib&#45;github/structures -->
<g id="edge10" class="edge">
<title>/Users/mmoscato/nasa/cpr/gitlab_github/PVS/CPR&#45;&gt;/Users/mmoscato/nasa/pvslib/pvslib&#45;github/structures</title>
<path fill="none" stroke="black" d="M658.17,-123C661.19,-123 663.2,-123 663.2,-123 663.2,-123 663.2,-23 663.2,-23 663.2,-23 668.41,-23 668.41,-23"/>
<polygon fill="black" stroke="black" points="668.41,-26.5 678.41,-23 668.41,-19.5 668.41,-26.5"/>
</g>
<!-- /Users/mmoscato/nasa/pvslib/pvslib&#45;github/trig -->
<g id="node15" class="node">
<title>/Users/mmoscato/nasa/pvslib/pvslib&#45;github/trig</title>
<polygon fill="#fcfcd7" stroke="black" points="142,-52 88,-52 88,-16 142,-16 142,-52"/>
<text text-anchor="middle" x="115" y="-30.3" font-family="Times,serif" font-size="14.00">trig</text>
</g>
<!-- /Users/mmoscato/nasa/cpr/gitlab_github/PVS/CPR&#45;&gt;/Users/mmoscato/nasa/pvslib/pvslib&#45;github/trig -->
<g id="edge11" class="edge">
<title>/Users/mmoscato/nasa/cpr/gitlab_github/PVS/CPR&#45;&gt;/Users/mmoscato/nasa/pvslib/pvslib&#45;github/trig</title>
<path fill="none" stroke="black" d="M603.74,-124C498.43,-124 124,-124 124,-124 124,-124 124,-62.21 124,-62.21"/>
<polygon fill="black" stroke="black" points="127.5,-62.21 124,-52.21 120.5,-62.21 127.5,-62.21"/>
</g>
<!-- /Users/mmoscato/pvs/7.1.0&#45;ix86&#45;MacOSX&#45;allegro/lib/finite_sets -->
<g id="node16" class="node">
<title>/Users/mmoscato/pvs/7.1.0&#45;ix86&#45;MacOSX&#45;allegro/lib/finite_sets</title>
<polygon fill="#fcfcd7" stroke="black" points="1065.5,-52 994.5,-52 994.5,-16 1065.5,-16 1065.5,-52"/>
<text text-anchor="middle" x="1030" y="-30.3" font-family="Times,serif" font-size="14.00">finite_sets</text>
</g>
<!-- /Users/mmoscato/nasa/cpr/gitlab_github/PVS/CPR&#45;&gt;/Users/mmoscato/pvs/7.1.0&#45;ix86&#45;MacOSX&#45;allegro/lib/finite_sets -->
<g id="edge12" class="edge">
<title>/Users/mmoscato/nasa/cpr/gitlab_github/PVS/CPR&#45;&gt;/Users/mmoscato/pvs/7.1.0&#45;ix86&#45;MacOSX&#45;allegro/lib/finite_sets</title>
<path fill="none" stroke="black" d="M649.33,-98.83C649.33,-94.95 649.33,-92 649.33,-92 649.33,-92 1012.25,-92 1012.25,-92 1012.25,-92 1012.25,-62.03 1012.25,-62.03"/>
<polygon fill="black" stroke="black" points="1015.75,-62.03 1012.25,-52.03 1008.75,-62.03 1015.75,-62.03"/>
</g>
<!-- /Users/mmoscato/nasa/cpr/gitlab_github/PVS/framac_wp -->
<g id="node2" class="node">
<title>/Users/mmoscato/nasa/cpr/gitlab_github/PVS/framac_wp</title>
<polygon fill="#fcfcd7" stroke="black" points="754,-135 676,-135 676,-99 754,-99 754,-135"/>
<text text-anchor="middle" x="715" y="-113.3" font-family="Times,serif" font-size="14.00">framac_wp</text>
</g>
<!-- /Users/mmoscato/nasa/cpr/gitlab_github/PVS/framac_wp&#45;&gt;/Users/mmoscato/nasa/pvslib/pvslib&#45;github/analysis -->
<g id="edge13" class="edge">
<title>/Users/mmoscato/nasa/cpr/gitlab_github/PVS/framac_wp&#45;&gt;/Users/mmoscato/nasa/pvslib/pvslib&#45;github/analysis</title>
<path fill="none" stroke="black" d="M754,-113C799.33,-113 868,-113 868,-113 868,-113 868,-62.32 868,-62.32"/>
<polygon fill="black" stroke="black" points="871.5,-62.32 868,-52.32 864.5,-62.32 871.5,-62.32"/>
</g>
<!-- /Users/mmoscato/nasa/cpr/gitlab_github/PVS/framac_wp&#45;&gt;/Users/mmoscato/nasa/pvslib/pvslib&#45;github/ints -->
<g id="edge14" class="edge">
<title>/Users/mmoscato/nasa/cpr/gitlab_github/PVS/framac_wp&#45;&gt;/Users/mmoscato/nasa/pvslib/pvslib&#45;github/ints</title>
<path fill="none" stroke="black" d="M713,-98.98C713,-81.63 713,-58 713,-58 713,-58 574.5,-58 574.5,-58 574.5,-58 574.5,-57.42 574.5,-57.42"/>
<polygon fill="black" stroke="black" points="578,-62.19 574.5,-52.19 571,-62.19 578,-62.19"/>
</g>
<!-- /Users/mmoscato/nasa/cpr/gitlab_github/PVS/framac_wp&#45;&gt;/Users/mmoscato/nasa/pvslib/pvslib&#45;github/lnexp -->
<g id="edge15" class="edge">
<title>/Users/mmoscato/nasa/cpr/gitlab_github/PVS/framac_wp&#45;&gt;/Users/mmoscato/nasa/pvslib/pvslib&#45;github/lnexp</title>
<path fill="none" stroke="black" d="M675.83,-111C673.94,-111 672.8,-111 672.8,-111 672.8,-111 672.8,-37 672.8,-37 672.8,-37 670.21,-37 670.21,-37"/>
<polygon fill="black" stroke="black" points="670.21,-33.5 660.21,-37 670.21,-40.5 670.21,-33.5"/>
</g>
<!-- /Users/mmoscato/nasa/pvslib/pvslib&#45;github/power -->
<g id="node11" class="node">
<title>/Users/mmoscato/nasa/pvslib/pvslib&#45;github/power</title>
<polygon fill="#fcfcd7" stroke="black" points="516,-52 462,-52 462,-16 516,-16 516,-52"/>
<text text-anchor="middle" x="489" y="-30.3" font-family="Times,serif" font-size="14.00">power</text>
</g>
<!-- /Users/mmoscato/nasa/cpr/gitlab_github/PVS/framac_wp&#45;&gt;/Users/mmoscato/nasa/pvslib/pvslib&#45;github/power -->
<g id="edge16" class="edge">
<title>/Users/mmoscato/nasa/cpr/gitlab_github/PVS/framac_wp&#45;&gt;/Users/mmoscato/nasa/pvslib/pvslib&#45;github/power</title>
<path fill="none" stroke="black" d="M695.75,-98.96C695.75,-86.44 695.75,-72 695.75,-72 695.75,-72 498,-72 498,-72 498,-72 498,-62.11 498,-62.11"/>
<polygon fill="black" stroke="black" points="501.5,-62.11 498,-52.11 494.5,-62.11 501.5,-62.11"/>
</g>
<!-- /Users/mmoscato/nasa/cpr/gitlab_github/PVS/framac_wp&#45;&gt;/Users/mmoscato/nasa/pvslib/pvslib&#45;github/reals -->
<g id="edge17" class="edge">
<title>/Users/mmoscato/nasa/cpr/gitlab_github/PVS/framac_wp&#45;&gt;/Users/mmoscato/nasa/pvslib/pvslib&#45;github/reals</title>
<path fill="none" stroke="black" d="M754.46,-106C773.8,-106 793,-106 793,-106 793,-106 793,-62.17 793,-62.17"/>
<polygon fill="black" stroke="black" points="796.5,-62.17 793,-52.17 789.5,-62.17 796.5,-62.17"/>
</g>
<!-- /Users/mmoscato/nasa/cpr/gitlab_github/PVS/framac_wp&#45;&gt;/Users/mmoscato/nasa/pvslib/pvslib&#45;github/series -->
<g id="edge18" class="edge">
<title>/Users/mmoscato/nasa/cpr/gitlab_github/PVS/framac_wp&#45;&gt;/Users/mmoscato/nasa/pvslib/pvslib&#45;github/series</title>
<path fill="none" stroke="black" d="M754.19,-120C819.38,-120 943,-120 943,-120 943,-120 943,-62.24 943,-62.24"/>
<polygon fill="black" stroke="black" points="946.5,-62.24 943,-52.24 939.5,-62.24 946.5,-62.24"/>
</g>
<!-- /Users/mmoscato/nasa/cpr/gitlab_github/PVS/framac_wp&#45;&gt;/Users/mmoscato/nasa/pvslib/pvslib&#45;github/structures -->
<g id="edge19" class="edge">
<title>/Users/mmoscato/nasa/cpr/gitlab_github/PVS/framac_wp&#45;&gt;/Users/mmoscato/nasa/pvslib/pvslib&#45;github/structures</title>
<path fill="none" stroke="black" d="M730.25,-98.99C730.25,-98.99 730.25,-62.26 730.25,-62.26"/>
<polygon fill="black" stroke="black" points="733.75,-62.26 730.25,-52.26 726.75,-62.26 733.75,-62.26"/>
</g>
<!-- /Users/mmoscato/nasa/cpr/gitlab_github/PVS/framac_wp&#45;&gt;/Users/mmoscato/pvs/7.1.0&#45;ix86&#45;MacOSX&#45;allegro/lib/finite_sets -->
<g id="edge20" class="edge">
<title>/Users/mmoscato/nasa/cpr/gitlab_github/PVS/framac_wp&#45;&gt;/Users/mmoscato/pvs/7.1.0&#45;ix86&#45;MacOSX&#45;allegro/lib/finite_sets</title>
<path fill="none" stroke="black" d="M754.26,-127C838.7,-127 1030,-127 1030,-127 1030,-127 1030,-62.37 1030,-62.37"/>
<polygon fill="black" stroke="black" points="1033.5,-62.37 1030,-52.37 1026.5,-62.37 1033.5,-62.37"/>
</g>
<!-- /Users/mmoscato/nasa/cpr/gitlab_github/PVS/vc_nb_17 -->
<g id="node3" class="node">
<title>/Users/mmoscato/nasa/cpr/gitlab_github/PVS/vc_nb_17</title>
<polygon fill="#f7e28d" stroke="black" points="712,-207 642,-207 642,-171 712,-171 712,-207"/>
<text text-anchor="middle" x="677" y="-185.3" font-family="Times,serif" font-size="14.00">vc_nb_17</text>
</g>
<!-- /Users/mmoscato/nasa/cpr/gitlab_github/PVS/vc_nb_17&#45;&gt;/Users/mmoscato/nasa/cpr/gitlab_github/PVS/CPR -->
<g id="edge21" class="edge">
<title>/Users/mmoscato/nasa/cpr/gitlab_github/PVS/vc_nb_17&#45;&gt;/Users/mmoscato/nasa/cpr/gitlab_github/PVS/CPR</title>
<path fill="none" stroke="black" d="M650,-170.83C650,-170.83 650,-145.41 650,-145.41"/>
<polygon fill="black" stroke="black" points="653.5,-145.41 650,-135.41 646.5,-145.41 653.5,-145.41"/>
</g>
<!-- /Users/mmoscato/nasa/cpr/gitlab_github/PVS/vc_nb_17&#45;&gt;/Users/mmoscato/nasa/cpr/gitlab_github/PVS/framac_wp -->
<g id="edge22" class="edge">
<title>/Users/mmoscato/nasa/cpr/gitlab_github/PVS/vc_nb_17&#45;&gt;/Users/mmoscato/nasa/cpr/gitlab_github/PVS/framac_wp</title>
<path fill="none" stroke="black" d="M694,-170.83C694,-170.83 694,-145.41 694,-145.41"/>
<polygon fill="black" stroke="black" points="697.5,-145.41 694,-135.41 690.5,-145.41 697.5,-145.41"/>
</g>
<!-- /Users/mmoscato/nasa/cpr/gitlab_github/PVS/vc_nb_17&#45;&gt;/Users/mmoscato/nasa/pvslib/pvslib&#45;github/Sturm -->
<g id="edge23" class="edge">
<title>/Users/mmoscato/nasa/cpr/gitlab_github/PVS/vc_nb_17&#45;&gt;/Users/mmoscato/nasa/pvslib/pvslib&#45;github/Sturm</title>
<path fill="none" stroke="black" d="M641.91,-193C528.33,-193 178,-193 178,-193 178,-193 178,-62.24 178,-62.24"/>
<polygon fill="black" stroke="black" points="181.5,-62.24 178,-52.24 174.5,-62.24 181.5,-62.24"/>
</g>
<!-- /Users/mmoscato/nasa/cpr/gitlab_github/PVS/vc_nb_17&#45;&gt;/Users/mmoscato/nasa/pvslib/pvslib&#45;github/analysis -->
<g id="edge24" class="edge">
<title>/Users/mmoscato/nasa/cpr/gitlab_github/PVS/vc_nb_17&#45;&gt;/Users/mmoscato/nasa/pvslib/pvslib&#45;github/analysis</title>
<path fill="none" stroke="black" d="M712.41,-185C771.31,-185 883,-185 883,-185 883,-185 883,-62.21 883,-62.21"/>
<polygon fill="black" stroke="black" points="886.5,-62.21 883,-52.21 879.5,-62.21 886.5,-62.21"/>
</g>
<!-- /Users/mmoscato/nasa/cpr/gitlab_github/PVS/vc_nb_17&#45;&gt;/Users/mmoscato/nasa/pvslib/pvslib&#45;github/exact_real_arith -->
<g id="edge25" class="edge">
<title>/Users/mmoscato/nasa/cpr/gitlab_github/PVS/vc_nb_17&#45;&gt;/Users/mmoscato/nasa/pvslib/pvslib&#45;github/exact_real_arith</title>
<path fill="none" stroke="black" d="M641.66,-189C542.13,-189 266.67,-189 266.67,-189 266.67,-189 266.67,-62.08 266.67,-62.08"/>
<polygon fill="black" stroke="black" points="270.17,-62.08 266.67,-52.08 263.17,-62.08 270.17,-62.08"/>
</g>
<!-- /Users/mmoscato/nasa/cpr/gitlab_github/PVS/vc_nb_17&#45;&gt;/Users/mmoscato/nasa/pvslib/pvslib&#45;github/interval_arith -->
<g id="edge26" class="edge">
<title>/Users/mmoscato/nasa/cpr/gitlab_github/PVS/vc_nb_17&#45;&gt;/Users/mmoscato/nasa/pvslib/pvslib&#45;github/interval_arith</title>
<path fill="none" stroke="black" d="M641.97,-184C564.24,-184 384.17,-184 384.17,-184 384.17,-184 384.17,-62.09 384.17,-62.09"/>
<polygon fill="black" stroke="black" points="387.67,-62.09 384.17,-52.09 380.67,-62.09 387.67,-62.09"/>
</g>
<!-- /Users/mmoscato/nasa/cpr/gitlab_github/PVS/vc_nb_17&#45;&gt;/Users/mmoscato/nasa/pvslib/pvslib&#45;github/ints -->
<g id="edge27" class="edge">
<title>/Users/mmoscato/nasa/cpr/gitlab_github/PVS/vc_nb_17&#45;&gt;/Users/mmoscato/nasa/pvslib/pvslib&#45;github/ints</title>
<path fill="none" stroke="black" d="M641.96,-175C603.6,-175 547.5,-175 547.5,-175 547.5,-175 547.5,-62.14 547.5,-62.14"/>
<polygon fill="black" stroke="black" points="551,-62.14 547.5,-52.14 544,-62.14 551,-62.14"/>
</g>
<!-- /Users/mmoscato/nasa/cpr/gitlab_github/PVS/vc_nb_17&#45;&gt;/Users/mmoscato/nasa/pvslib/pvslib&#45;github/lnexp -->
<g id="edge28" class="edge">
<title>/Users/mmoscato/nasa/cpr/gitlab_github/PVS/vc_nb_17&#45;&gt;/Users/mmoscato/nasa/pvslib/pvslib&#45;github/lnexp</title>
<path fill="none" stroke="black" d="M666.4,-170.93C666.4,-132.06 666.4,-44 666.4,-44 666.4,-44 665.79,-44 665.79,-44"/>
<polygon fill="black" stroke="black" points="670.27,-40.5 660.27,-44 670.27,-47.5 670.27,-40.5"/>
</g>
<!-- /Users/mmoscato/nasa/cpr/gitlab_github/PVS/vc_nb_17&#45;&gt;/Users/mmoscato/nasa/pvslib/pvslib&#45;github/orders -->
<g id="edge29" class="edge">
<title>/Users/mmoscato/nasa/cpr/gitlab_github/PVS/vc_nb_17&#45;&gt;/Users/mmoscato/nasa/pvslib/pvslib&#45;github/orders</title>
<path fill="none" stroke="black" d="M641.97,-202C507.79,-202 34,-202 34,-202 34,-202 34,-62.3 34,-62.3"/>
<polygon fill="black" stroke="black" points="37.5,-62.3 34,-52.3 30.5,-62.3 37.5,-62.3"/>
</g>
<!-- /Users/mmoscato/nasa/cpr/gitlab_github/PVS/vc_nb_17&#45;&gt;/Users/mmoscato/nasa/pvslib/pvslib&#45;github/power -->
<g id="edge30" class="edge">
<title>/Users/mmoscato/nasa/cpr/gitlab_github/PVS/vc_nb_17&#45;&gt;/Users/mmoscato/nasa/pvslib/pvslib&#45;github/power</title>
<path fill="none" stroke="black" d="M641.78,-180C585.12,-180 480,-180 480,-180 480,-180 480,-62.2 480,-62.2"/>
<polygon fill="black" stroke="black" points="483.5,-62.2 480,-52.2 476.5,-62.2 483.5,-62.2"/>
</g>
<!-- /Users/mmoscato/nasa/cpr/gitlab_github/PVS/vc_nb_17&#45;&gt;/Users/mmoscato/nasa/pvslib/pvslib&#45;github/reals -->
<g id="edge31" class="edge">
<title>/Users/mmoscato/nasa/cpr/gitlab_github/PVS/vc_nb_17&#45;&gt;/Users/mmoscato/nasa/pvslib/pvslib&#45;github/reals</title>
<path fill="none" stroke="black" d="M712.04,-178C750.4,-178 806.5,-178 806.5,-178 806.5,-178 806.5,-62.24 806.5,-62.24"/>
<polygon fill="black" stroke="black" points="810,-62.24 806.5,-52.24 803,-62.24 810,-62.24"/>
</g>
<!-- /Users/mmoscato/nasa/cpr/gitlab_github/PVS/vc_nb_17&#45;&gt;/Users/mmoscato/nasa/pvslib/pvslib&#45;github/series -->
<g id="edge32" class="edge">
<title>/Users/mmoscato/nasa/cpr/gitlab_github/PVS/vc_nb_17&#45;&gt;/Users/mmoscato/nasa/pvslib/pvslib&#45;github/series</title>
<path fill="none" stroke="black" d="M712.12,-192C787.18,-192 956.5,-192 956.5,-192 956.5,-192 956.5,-62.12 956.5,-62.12"/>
<polygon fill="black" stroke="black" points="960,-62.12 956.5,-52.12 953,-62.12 960,-62.12"/>
</g>
<!-- /Users/mmoscato/nasa/cpr/gitlab_github/PVS/vc_nb_17&#45;&gt;/Users/mmoscato/nasa/pvslib/pvslib&#45;github/structures -->
<g id="edge33" class="edge">
<title>/Users/mmoscato/nasa/cpr/gitlab_github/PVS/vc_nb_17&#45;&gt;/Users/mmoscato/nasa/pvslib/pvslib&#45;github/structures</title>
<path fill="none" stroke="black" d="M669.6,-170.76C669.6,-129 669.6,-30 669.6,-30 669.6,-30 670.48,-30 670.48,-30"/>
<polygon fill="black" stroke="black" points="668.38,-33.5 678.38,-30 668.38,-26.5 668.38,-33.5"/>
</g>
<!-- /Users/mmoscato/nasa/cpr/gitlab_github/PVS/vc_nb_17&#45;&gt;/Users/mmoscato/nasa/pvslib/pvslib&#45;github/trig -->
<g id="edge34" class="edge">
<title>/Users/mmoscato/nasa/cpr/gitlab_github/PVS/vc_nb_17&#45;&gt;/Users/mmoscato/nasa/pvslib/pvslib&#45;github/trig</title>
<path fill="none" stroke="black" d="M641.71,-198C517.22,-198 106,-198 106,-198 106,-198 106,-62.18 106,-62.18"/>
<polygon fill="black" stroke="black" points="109.5,-62.18 106,-52.18 102.5,-62.18 109.5,-62.18"/>
</g>
<!-- /Users/mmoscato/nasa/cpr/gitlab_github/PVS/vc_nb_17&#45;&gt;/Users/mmoscato/pvs/7.1.0&#45;ix86&#45;MacOSX&#45;allegro/lib/finite_sets -->
<g id="edge35" class="edge">
<title>/Users/mmoscato/nasa/cpr/gitlab_github/PVS/vc_nb_17&#45;&gt;/Users/mmoscato/pvs/7.1.0&#45;ix86&#45;MacOSX&#45;allegro/lib/finite_sets</title>
<path fill="none" stroke="black" d="M712.21,-199C804.76,-199 1047.75,-199 1047.75,-199 1047.75,-199 1047.75,-62.29 1047.75,-62.29"/>
<polygon fill="black" stroke="black" points="1051.25,-62.29 1047.75,-52.29 1044.25,-62.29 1051.25,-62.29"/>
</g>
</g>
</svg>
