<?xml version="1.0" encoding="UTF-8" standalone="no"?>
<!DOCTYPE svg PUBLIC "-//W3C//DTD SVG 1.1//EN"
 "http://www.w3.org/Graphics/SVG/1.1/DTD/svg11.dtd">
<!-- Generated by graphviz version 2.44.1 (20200629.0846)
 -->
<!-- Title: CPR_fp Pages: 1 -->
<svg width="1010pt" height="182pt"
 viewBox="0.00 0.00 1010.00 182.00" xmlns="http://www.w3.org/2000/svg" xmlns:xlink="http://www.w3.org/1999/xlink">
<g id="graph0" class="graph" transform="scale(1 1) rotate(0) translate(4 178)">
<title>CPR_fp</title>
<polygon fill="white" stroke="transparent" points="-4,4 -4,-178 1006,-178 1006,4 -4,4"/>
<g id="clust1" class="cluster">
<title>cluster_CPR</title>
<polygon fill="none" stroke="black" points="419,-91 419,-166 495,-166 495,-91 419,-91"/>
<text text-anchor="middle" x="457" y="-150.8" font-family="Times,serif" font-size="14.00">CPR</text>
</g>
<g id="clust2" class="cluster">
<title>cluster_NASALib</title>
<polygon fill="none" stroke="black" points="8,-8 8,-83 898,-83 898,-8 8,-8"/>
<text text-anchor="middle" x="453" y="-67.8" font-family="Times,serif" font-size="14.00">NASALib</text>
</g>
<g id="clust3" class="cluster">
<title>cluster_PVS Prelude</title>
<polygon fill="none" stroke="black" points="906,-8 906,-83 994,-83 994,-8 906,-8"/>
<text text-anchor="middle" x="950" y="-67.8" font-family="Times,serif" font-size="14.00">PVS Prelude</text>
</g>
<!-- /Users/mmoscato/nasa/cpr/gitlab_github/PVS/CPR_fp -->
<g id="node1" class="node">
<title>/Users/mmoscato/nasa/cpr/gitlab_github/PVS/CPR_fp</title>
<polygon fill="#f7e28d" stroke="black" points="487,-135 427,-135 427,-99 487,-99 487,-135"/>
<text text-anchor="middle" x="457" y="-113.3" font-family="Times,serif" font-size="14.00">CPR_fp</text>
</g>
<!-- /Users/mmoscato/nasa/pvslib/pvslib&#45;github/PVSioChecker -->
<g id="node2" class="node">
<title>/Users/mmoscato/nasa/pvslib/pvslib&#45;github/PVSioChecker</title>
<polygon fill="#fcfcd7" stroke="black" points="889.5,-52 792.5,-52 792.5,-16 889.5,-16 889.5,-52"/>
<text text-anchor="middle" x="841" y="-30.3" font-family="Times,serif" font-size="14.00">PVSioChecker</text>
</g>
<!-- /Users/mmoscato/nasa/cpr/gitlab_github/PVS/CPR_fp&#45;&gt;/Users/mmoscato/nasa/pvslib/pvslib&#45;github/PVSioChecker -->
<g id="edge1" class="edge">
<title>/Users/mmoscato/nasa/cpr/gitlab_github/PVS/CPR_fp&#45;&gt;/Users/mmoscato/nasa/pvslib/pvslib&#45;github/PVSioChecker</title>
<path fill="none" stroke="black" d="M487.13,-123C577.66,-123 841,-123 841,-123 841,-123 841,-62.01 841,-62.01"/>
<polygon fill="black" stroke="black" points="844.5,-62.01 841,-52.01 837.5,-62.01 844.5,-62.01"/>
</g>
<!-- /Users/mmoscato/nasa/pvslib/pvslib&#45;github/analysis -->
<g id="node3" class="node">
<title>/Users/mmoscato/nasa/pvslib/pvslib&#45;github/analysis</title>
<polygon fill="#fcfcd7" stroke="black" points="774,-52 714,-52 714,-16 774,-16 774,-52"/>
<text text-anchor="middle" x="744" y="-30.3" font-family="Times,serif" font-size="14.00">analysis</text>
</g>
<!-- /Users/mmoscato/nasa/cpr/gitlab_github/PVS/CPR_fp&#45;&gt;/Users/mmoscato/nasa/pvslib/pvslib&#45;github/analysis -->
<g id="edge2" class="edge">
<title>/Users/mmoscato/nasa/cpr/gitlab_github/PVS/CPR_fp&#45;&gt;/Users/mmoscato/nasa/pvslib/pvslib&#45;github/analysis</title>
<path fill="none" stroke="black" d="M487.17,-117C560.86,-117 744,-117 744,-117 744,-117 744,-62.01 744,-62.01"/>
<polygon fill="black" stroke="black" points="747.5,-62.01 744,-52.01 740.5,-62.01 747.5,-62.01"/>
</g>
<!-- /Users/mmoscato/nasa/pvslib/pvslib&#45;github/aviation -->
<g id="node4" class="node">
<title>/Users/mmoscato/nasa/pvslib/pvslib&#45;github/aviation</title>
<polygon fill="#fcfcd7" stroke="black" points="696,-52 636,-52 636,-16 696,-16 696,-52"/>
<text text-anchor="middle" x="666" y="-30.3" font-family="Times,serif" font-size="14.00">aviation</text>
</g>
<!-- /Users/mmoscato/nasa/cpr/gitlab_github/PVS/CPR_fp&#45;&gt;/Users/mmoscato/nasa/pvslib/pvslib&#45;github/aviation -->
<g id="edge3" class="edge">
<title>/Users/mmoscato/nasa/cpr/gitlab_github/PVS/CPR_fp&#45;&gt;/Users/mmoscato/nasa/pvslib/pvslib&#45;github/aviation</title>
<path fill="none" stroke="black" d="M487.39,-111C545.36,-111 666,-111 666,-111 666,-111 666,-62.25 666,-62.25"/>
<polygon fill="black" stroke="black" points="669.5,-62.25 666,-52.25 662.5,-62.25 669.5,-62.25"/>
</g>
<!-- /Users/mmoscato/nasa/pvslib/pvslib&#45;github/fast_approx -->
<g id="node5" class="node">
<title>/Users/mmoscato/nasa/pvslib/pvslib&#45;github/fast_approx</title>
<polygon fill="#fcfcd7" stroke="black" points="618,-52 538,-52 538,-16 618,-16 618,-52"/>
<text text-anchor="middle" x="578" y="-30.3" font-family="Times,serif" font-size="14.00">fast_approx</text>
</g>
<!-- /Users/mmoscato/nasa/cpr/gitlab_github/PVS/CPR_fp&#45;&gt;/Users/mmoscato/nasa/pvslib/pvslib&#45;github/fast_approx -->
<g id="edge4" class="edge">
<title>/Users/mmoscato/nasa/cpr/gitlab_github/PVS/CPR_fp&#45;&gt;/Users/mmoscato/nasa/pvslib/pvslib&#45;github/fast_approx</title>
<path fill="none" stroke="black" d="M487.22,-105C523.06,-105 578,-105 578,-105 578,-105 578,-62.28 578,-62.28"/>
<polygon fill="black" stroke="black" points="581.5,-62.28 578,-52.28 574.5,-62.28 581.5,-62.28"/>
</g>
<!-- /Users/mmoscato/nasa/pvslib/pvslib&#45;github/ints -->
<g id="node6" class="node">
<title>/Users/mmoscato/nasa/pvslib/pvslib&#45;github/ints</title>
<polygon fill="#fcfcd7" stroke="black" points="520,-52 466,-52 466,-16 520,-16 520,-52"/>
<text text-anchor="middle" x="493" y="-30.3" font-family="Times,serif" font-size="14.00">ints</text>
</g>
<!-- /Users/mmoscato/nasa/cpr/gitlab_github/PVS/CPR_fp&#45;&gt;/Users/mmoscato/nasa/pvslib/pvslib&#45;github/ints -->
<g id="edge5" class="edge">
<title>/Users/mmoscato/nasa/cpr/gitlab_github/PVS/CPR_fp&#45;&gt;/Users/mmoscato/nasa/pvslib/pvslib&#45;github/ints</title>
<path fill="none" stroke="black" d="M476.5,-98.99C476.5,-98.99 476.5,-62.26 476.5,-62.26"/>
<polygon fill="black" stroke="black" points="480,-62.26 476.5,-52.26 473,-62.26 480,-62.26"/>
</g>
<!-- /Users/mmoscato/nasa/pvslib/pvslib&#45;github/orders -->
<g id="node7" class="node">
<title>/Users/mmoscato/nasa/pvslib/pvslib&#45;github/orders</title>
<polygon fill="#fcfcd7" stroke="black" points="448,-52 394,-52 394,-16 448,-16 448,-52"/>
<text text-anchor="middle" x="421" y="-30.3" font-family="Times,serif" font-size="14.00">orders</text>
</g>
<!-- /Users/mmoscato/nasa/cpr/gitlab_github/PVS/CPR_fp&#45;&gt;/Users/mmoscato/nasa/pvslib/pvslib&#45;github/orders -->
<g id="edge6" class="edge">
<title>/Users/mmoscato/nasa/cpr/gitlab_github/PVS/CPR_fp&#45;&gt;/Users/mmoscato/nasa/pvslib/pvslib&#45;github/orders</title>
<path fill="none" stroke="black" d="M437.5,-98.99C437.5,-98.99 437.5,-62.26 437.5,-62.26"/>
<polygon fill="black" stroke="black" points="441,-62.26 437.5,-52.26 434,-62.26 441,-62.26"/>
</g>
<!-- /Users/mmoscato/nasa/pvslib/pvslib&#45;github/reals -->
<g id="node8" class="node">
<title>/Users/mmoscato/nasa/pvslib/pvslib&#45;github/reals</title>
<polygon fill="#fcfcd7" stroke="black" points="376,-52 322,-52 322,-16 376,-16 376,-52"/>
<text text-anchor="middle" x="349" y="-30.3" font-family="Times,serif" font-size="14.00">reals</text>
</g>
<!-- /Users/mmoscato/nasa/cpr/gitlab_github/PVS/CPR_fp&#45;&gt;/Users/mmoscato/nasa/pvslib/pvslib&#45;github/reals -->
<g id="edge7" class="edge">
<title>/Users/mmoscato/nasa/cpr/gitlab_github/PVS/CPR_fp&#45;&gt;/Users/mmoscato/nasa/pvslib/pvslib&#45;github/reals</title>
<path fill="none" stroke="black" d="M426.92,-105C394.96,-105 349,-105 349,-105 349,-105 349,-62.28 349,-62.28"/>
<polygon fill="black" stroke="black" points="352.5,-62.28 349,-52.28 345.5,-62.28 352.5,-62.28"/>
</g>
<!-- /Users/mmoscato/nasa/pvslib/pvslib&#45;github/series -->
<g id="node9" class="node">
<title>/Users/mmoscato/nasa/pvslib/pvslib&#45;github/series</title>
<polygon fill="#fcfcd7" stroke="black" points="304,-52 250,-52 250,-16 304,-16 304,-52"/>
<text text-anchor="middle" x="277" y="-30.3" font-family="Times,serif" font-size="14.00">series</text>
</g>
<!-- /Users/mmoscato/nasa/cpr/gitlab_github/PVS/CPR_fp&#45;&gt;/Users/mmoscato/nasa/pvslib/pvslib&#45;github/series -->
<g id="edge8" class="edge">
<title>/Users/mmoscato/nasa/cpr/gitlab_github/PVS/CPR_fp&#45;&gt;/Users/mmoscato/nasa/pvslib/pvslib&#45;github/series</title>
<path fill="none" stroke="black" d="M426.87,-111C375.63,-111 277,-111 277,-111 277,-111 277,-62.25 277,-62.25"/>
<polygon fill="black" stroke="black" points="280.5,-62.25 277,-52.25 273.5,-62.25 280.5,-62.25"/>
</g>
<!-- /Users/mmoscato/nasa/pvslib/pvslib&#45;github/structures -->
<g id="node10" class="node">
<title>/Users/mmoscato/nasa/pvslib/pvslib&#45;github/structures</title>
<polygon fill="#fcfcd7" stroke="black" points="231.5,-52 162.5,-52 162.5,-16 231.5,-16 231.5,-52"/>
<text text-anchor="middle" x="197" y="-30.3" font-family="Times,serif" font-size="14.00">structures</text>
</g>
<!-- /Users/mmoscato/nasa/cpr/gitlab_github/PVS/CPR_fp&#45;&gt;/Users/mmoscato/nasa/pvslib/pvslib&#45;github/structures -->
<g id="edge9" class="edge">
<title>/Users/mmoscato/nasa/cpr/gitlab_github/PVS/CPR_fp&#45;&gt;/Users/mmoscato/nasa/pvslib/pvslib&#45;github/structures</title>
<path fill="none" stroke="black" d="M426.92,-117C358.48,-117 197,-117 197,-117 197,-117 197,-62.01 197,-62.01"/>
<polygon fill="black" stroke="black" points="200.5,-62.01 197,-52.01 193.5,-62.01 200.5,-62.01"/>
</g>
<!-- /Users/mmoscato/nasa/pvslib/pvslib&#45;github/trig -->
<g id="node11" class="node">
<title>/Users/mmoscato/nasa/pvslib/pvslib&#45;github/trig</title>
<polygon fill="#fcfcd7" stroke="black" points="144,-52 90,-52 90,-16 144,-16 144,-52"/>
<text text-anchor="middle" x="117" y="-30.3" font-family="Times,serif" font-size="14.00">trig</text>
</g>
<!-- /Users/mmoscato/nasa/cpr/gitlab_github/PVS/CPR_fp&#45;&gt;/Users/mmoscato/nasa/pvslib/pvslib&#45;github/trig -->
<g id="edge10" class="edge">
<title>/Users/mmoscato/nasa/cpr/gitlab_github/PVS/CPR_fp&#45;&gt;/Users/mmoscato/nasa/pvslib/pvslib&#45;github/trig</title>
<path fill="none" stroke="black" d="M426.83,-123C343.62,-123 117,-123 117,-123 117,-123 117,-62.01 117,-62.01"/>
<polygon fill="black" stroke="black" points="120.5,-62.01 117,-52.01 113.5,-62.01 120.5,-62.01"/>
</g>
<!-- /Users/mmoscato/nasa/pvslib/pvslib&#45;github/vectors -->
<g id="node12" class="node">
<title>/Users/mmoscato/nasa/pvslib/pvslib&#45;github/vectors</title>
<polygon fill="#fcfcd7" stroke="black" points="72,-52 16,-52 16,-16 72,-16 72,-52"/>
<text text-anchor="middle" x="44" y="-30.3" font-family="Times,serif" font-size="14.00">vectors</text>
</g>
<!-- /Users/mmoscato/nasa/cpr/gitlab_github/PVS/CPR_fp&#45;&gt;/Users/mmoscato/nasa/pvslib/pvslib&#45;github/vectors -->
<g id="edge11" class="edge">
<title>/Users/mmoscato/nasa/cpr/gitlab_github/PVS/CPR_fp&#45;&gt;/Users/mmoscato/nasa/pvslib/pvslib&#45;github/vectors</title>
<path fill="none" stroke="black" d="M426.97,-129C331.93,-129 44,-129 44,-129 44,-129 44,-62.32 44,-62.32"/>
<polygon fill="black" stroke="black" points="47.5,-62.32 44,-52.32 40.5,-62.32 47.5,-62.32"/>
</g>
<!-- /Users/mmoscato/pvs/7.1.0&#45;ix86&#45;MacOSX&#45;allegro/lib/finite_sets -->
<g id="node13" class="node">
<title>/Users/mmoscato/pvs/7.1.0&#45;ix86&#45;MacOSX&#45;allegro/lib/finite_sets</title>
<polygon fill="#fcfcd7" stroke="black" points="985.5,-52 914.5,-52 914.5,-16 985.5,-16 985.5,-52"/>
<text text-anchor="middle" x="950" y="-30.3" font-family="Times,serif" font-size="14.00">finite_sets</text>
</g>
<!-- /Users/mmoscato/nasa/cpr/gitlab_github/PVS/CPR_fp&#45;&gt;/Users/mmoscato/pvs/7.1.0&#45;ix86&#45;MacOSX&#45;allegro/lib/finite_sets -->
<g id="edge12" class="edge">
<title>/Users/mmoscato/nasa/cpr/gitlab_github/PVS/CPR_fp&#45;&gt;/Users/mmoscato/pvs/7.1.0&#45;ix86&#45;MacOSX&#45;allegro/lib/finite_sets</title>
<path fill="none" stroke="black" d="M487.1,-129C594.13,-129 950,-129 950,-129 950,-129 950,-62.32 950,-62.32"/>
<polygon fill="black" stroke="black" points="953.5,-62.32 950,-52.32 946.5,-62.32 953.5,-62.32"/>
</g>
</g>
</svg>
