<?xml version="1.0" encoding="UTF-8" standalone="no"?>
<!DOCTYPE svg PUBLIC "-//W3C//DTD SVG 1.1//EN"
 "http://www.w3.org/Graphics/SVG/1.1/DTD/svg11.dtd">
<!-- Generated by graphviz version 2.44.1 (20200629.0846)
 -->
<!-- Title: CPR Pages: 1 -->
<svg width="1018pt" height="254pt"
 viewBox="0.00 0.00 1018.00 254.00" xmlns="http://www.w3.org/2000/svg" xmlns:xlink="http://www.w3.org/1999/xlink">
<g id="graph0" class="graph" transform="scale(1 1) rotate(0) translate(4 250)">
<title>CPR</title>
<polygon fill="white" stroke="transparent" points="-4,4 -4,-250 1014,-250 1014,4 -4,4"/>
<g id="clust1" class="cluster">
<title>cluster_CPR</title>
<polygon fill="none" stroke="black" points="639,-91 639,-238 989,-238 989,-91 639,-91"/>
<text text-anchor="middle" x="814" y="-222.8" font-family="Times,serif" font-size="14.00">CPR</text>
</g>
<g id="clust2" class="cluster">
<title>cluster_NASALib</title>
<polygon fill="none" stroke="black" points="8,-8 8,-83 906,-83 906,-8 8,-8"/>
<text text-anchor="middle" x="457" y="-67.8" font-family="Times,serif" font-size="14.00">NASALib</text>
</g>
<g id="clust3" class="cluster">
<title>cluster_PVS Prelude</title>
<polygon fill="none" stroke="black" points="914,-8 914,-83 1002,-83 1002,-8 914,-8"/>
<text text-anchor="middle" x="958" y="-67.8" font-family="Times,serif" font-size="14.00">PVS Prelude</text>
</g>
<!-- /Users/mmoscato/nasa/cpr/gitlab_github/PVS/CPR -->
<g id="node1" class="node">
<title>/Users/mmoscato/nasa/cpr/gitlab_github/PVS/CPR</title>
<polygon fill="#f7e28d" stroke="black" points="885,-135 831,-135 831,-99 885,-99 885,-135"/>
<text text-anchor="middle" x="858" y="-113.3" font-family="Times,serif" font-size="14.00">CPR</text>
</g>
<!-- /Users/mmoscato/nasa/pvslib/pvslib&#45;github/Sturm -->
<g id="node6" class="node">
<title>/Users/mmoscato/nasa/pvslib/pvslib&#45;github/Sturm</title>
<polygon fill="#fcfcd7" stroke="black" points="610,-52 556,-52 556,-16 610,-16 610,-52"/>
<text text-anchor="middle" x="583" y="-30.3" font-family="Times,serif" font-size="14.00">Sturm</text>
</g>
<!-- /Users/mmoscato/nasa/cpr/gitlab_github/PVS/CPR&#45;&gt;/Users/mmoscato/nasa/pvslib/pvslib&#45;github/Sturm -->
<g id="edge1" class="edge">
<title>/Users/mmoscato/nasa/cpr/gitlab_github/PVS/CPR&#45;&gt;/Users/mmoscato/nasa/pvslib/pvslib&#45;github/Sturm</title>
<path fill="none" stroke="black" d="M830.79,-107C764.35,-107 599.2,-107 599.2,-107 599.2,-107 599.2,-62.04 599.2,-62.04"/>
<polygon fill="black" stroke="black" points="602.7,-62.04 599.2,-52.04 595.7,-62.04 602.7,-62.04"/>
</g>
<!-- /Users/mmoscato/nasa/pvslib/pvslib&#45;github/analysis -->
<g id="node7" class="node">
<title>/Users/mmoscato/nasa/pvslib/pvslib&#45;github/analysis</title>
<polygon fill="#fcfcd7" stroke="black" points="308,-52 248,-52 248,-16 308,-16 308,-52"/>
<text text-anchor="middle" x="278" y="-30.3" font-family="Times,serif" font-size="14.00">analysis</text>
</g>
<!-- /Users/mmoscato/nasa/cpr/gitlab_github/PVS/CPR&#45;&gt;/Users/mmoscato/nasa/pvslib/pvslib&#45;github/analysis -->
<g id="edge2" class="edge">
<title>/Users/mmoscato/nasa/cpr/gitlab_github/PVS/CPR&#45;&gt;/Users/mmoscato/nasa/pvslib/pvslib&#45;github/analysis</title>
<path fill="none" stroke="black" d="M830.7,-115C716.63,-115 284,-115 284,-115 284,-115 284,-62.38 284,-62.38"/>
<polygon fill="black" stroke="black" points="287.5,-62.38 284,-52.38 280.5,-62.38 287.5,-62.38"/>
</g>
<!-- /Users/mmoscato/nasa/pvslib/pvslib&#45;github/exact_real_arith -->
<g id="node8" class="node">
<title>/Users/mmoscato/nasa/pvslib/pvslib&#45;github/exact_real_arith</title>
<polygon fill="#fcfcd7" stroke="black" points="430,-52 326,-52 326,-16 430,-16 430,-52"/>
<text text-anchor="middle" x="378" y="-30.3" font-family="Times,serif" font-size="14.00">exact_real_arith</text>
</g>
<!-- /Users/mmoscato/nasa/cpr/gitlab_github/PVS/CPR&#45;&gt;/Users/mmoscato/nasa/pvslib/pvslib&#45;github/exact_real_arith -->
<g id="edge3" class="edge">
<title>/Users/mmoscato/nasa/cpr/gitlab_github/PVS/CPR&#45;&gt;/Users/mmoscato/nasa/pvslib/pvslib&#45;github/exact_real_arith</title>
<path fill="none" stroke="black" d="M830.94,-112C733.91,-112 409.2,-112 409.2,-112 409.2,-112 409.2,-62.09 409.2,-62.09"/>
<polygon fill="black" stroke="black" points="412.7,-62.09 409.2,-52.09 405.7,-62.09 412.7,-62.09"/>
</g>
<!-- /Users/mmoscato/nasa/pvslib/pvslib&#45;github/interval_arith -->
<g id="node9" class="node">
<title>/Users/mmoscato/nasa/pvslib/pvslib&#45;github/interval_arith</title>
<polygon fill="#fcfcd7" stroke="black" points="537.5,-52 448.5,-52 448.5,-16 537.5,-16 537.5,-52"/>
<text text-anchor="middle" x="493" y="-30.3" font-family="Times,serif" font-size="14.00">interval_arith</text>
</g>
<!-- /Users/mmoscato/nasa/cpr/gitlab_github/PVS/CPR&#45;&gt;/Users/mmoscato/nasa/pvslib/pvslib&#45;github/interval_arith -->
<g id="edge4" class="edge">
<title>/Users/mmoscato/nasa/cpr/gitlab_github/PVS/CPR&#45;&gt;/Users/mmoscato/nasa/pvslib/pvslib&#45;github/interval_arith</title>
<path fill="none" stroke="black" d="M830.89,-110C750.61,-110 519.7,-110 519.7,-110 519.7,-110 519.7,-62.01 519.7,-62.01"/>
<polygon fill="black" stroke="black" points="523.2,-62.01 519.7,-52.01 516.2,-62.01 523.2,-62.01"/>
</g>
<!-- /Users/mmoscato/nasa/pvslib/pvslib&#45;github/ints -->
<g id="node10" class="node">
<title>/Users/mmoscato/nasa/pvslib/pvslib&#45;github/ints</title>
<polygon fill="#fcfcd7" stroke="black" points="826,-52 772,-52 772,-16 826,-16 826,-52"/>
<text text-anchor="middle" x="799" y="-30.3" font-family="Times,serif" font-size="14.00">ints</text>
</g>
<!-- /Users/mmoscato/nasa/cpr/gitlab_github/PVS/CPR&#45;&gt;/Users/mmoscato/nasa/pvslib/pvslib&#45;github/ints -->
<g id="edge5" class="edge">
<title>/Users/mmoscato/nasa/cpr/gitlab_github/PVS/CPR&#45;&gt;/Users/mmoscato/nasa/pvslib/pvslib&#45;github/ints</title>
<path fill="none" stroke="black" d="M837.5,-98.99C837.5,-74.58 837.5,-34 837.5,-34 837.5,-34 836.16,-34 836.16,-34"/>
<polygon fill="black" stroke="black" points="836.16,-30.5 826.16,-34 836.16,-37.5 836.16,-30.5"/>
</g>
<!-- /Users/mmoscato/nasa/pvslib/pvslib&#45;github/lnexp -->
<g id="node11" class="node">
<title>/Users/mmoscato/nasa/pvslib/pvslib&#45;github/lnexp</title>
<polygon fill="#fcfcd7" stroke="black" points="754,-52 700,-52 700,-16 754,-16 754,-52"/>
<text text-anchor="middle" x="727" y="-30.3" font-family="Times,serif" font-size="14.00">lnexp</text>
</g>
<!-- /Users/mmoscato/nasa/cpr/gitlab_github/PVS/CPR&#45;&gt;/Users/mmoscato/nasa/pvslib/pvslib&#45;github/lnexp -->
<g id="edge6" class="edge">
<title>/Users/mmoscato/nasa/cpr/gitlab_github/PVS/CPR&#45;&gt;/Users/mmoscato/nasa/pvslib/pvslib&#45;github/lnexp</title>
<path fill="none" stroke="black" d="M830.81,-101C799.53,-101 752.42,-101 752.42,-101 752.42,-101 752.42,-62.31 752.42,-62.31"/>
<polygon fill="black" stroke="black" points="755.92,-62.31 752.42,-52.31 748.92,-62.31 755.92,-62.31"/>
</g>
<!-- /Users/mmoscato/nasa/pvslib/pvslib&#45;github/orders -->
<g id="node12" class="node">
<title>/Users/mmoscato/nasa/pvslib/pvslib&#45;github/orders</title>
<polygon fill="#fcfcd7" stroke="black" points="682,-52 628,-52 628,-16 682,-16 682,-52"/>
<text text-anchor="middle" x="655" y="-30.3" font-family="Times,serif" font-size="14.00">orders</text>
</g>
<!-- /Users/mmoscato/nasa/cpr/gitlab_github/PVS/CPR&#45;&gt;/Users/mmoscato/nasa/pvslib/pvslib&#45;github/orders -->
<g id="edge7" class="edge">
<title>/Users/mmoscato/nasa/cpr/gitlab_github/PVS/CPR&#45;&gt;/Users/mmoscato/nasa/pvslib/pvslib&#45;github/orders</title>
<path fill="none" stroke="black" d="M831,-104C780.09,-104 675,-104 675,-104 675,-104 675,-62.03 675,-62.03"/>
<polygon fill="black" stroke="black" points="678.5,-62.03 675,-52.03 671.5,-62.03 678.5,-62.03"/>
</g>
<!-- /Users/mmoscato/nasa/pvslib/pvslib&#45;github/reals -->
<g id="node13" class="node">
<title>/Users/mmoscato/nasa/pvslib/pvslib&#45;github/reals</title>
<polygon fill="#fcfcd7" stroke="black" points="898,-52 844,-52 844,-16 898,-16 898,-52"/>
<text text-anchor="middle" x="871" y="-30.3" font-family="Times,serif" font-size="14.00">reals</text>
</g>
<!-- /Users/mmoscato/nasa/cpr/gitlab_github/PVS/CPR&#45;&gt;/Users/mmoscato/nasa/pvslib/pvslib&#45;github/reals -->
<g id="edge8" class="edge">
<title>/Users/mmoscato/nasa/cpr/gitlab_github/PVS/CPR&#45;&gt;/Users/mmoscato/nasa/pvslib/pvslib&#45;github/reals</title>
<path fill="none" stroke="black" d="M874.75,-98.99C874.75,-98.99 874.75,-62.26 874.75,-62.26"/>
<polygon fill="black" stroke="black" points="878.25,-62.26 874.75,-52.26 871.25,-62.26 878.25,-62.26"/>
</g>
<!-- /Users/mmoscato/nasa/pvslib/pvslib&#45;github/series -->
<g id="node14" class="node">
<title>/Users/mmoscato/nasa/pvslib/pvslib&#45;github/series</title>
<polygon fill="#fcfcd7" stroke="black" points="70,-52 16,-52 16,-16 70,-16 70,-52"/>
<text text-anchor="middle" x="43" y="-30.3" font-family="Times,serif" font-size="14.00">series</text>
</g>
<!-- /Users/mmoscato/nasa/cpr/gitlab_github/PVS/CPR&#45;&gt;/Users/mmoscato/nasa/pvslib/pvslib&#45;github/series -->
<g id="edge9" class="edge">
<title>/Users/mmoscato/nasa/cpr/gitlab_github/PVS/CPR&#45;&gt;/Users/mmoscato/nasa/pvslib/pvslib&#45;github/series</title>
<path fill="none" stroke="black" d="M830.6,-123C689.18,-123 48.4,-123 48.4,-123 48.4,-123 48.4,-62.01 48.4,-62.01"/>
<polygon fill="black" stroke="black" points="51.9,-62.01 48.4,-52.01 44.9,-62.01 51.9,-62.01"/>
</g>
<!-- /Users/mmoscato/nasa/pvslib/pvslib&#45;github/structures -->
<g id="node15" class="node">
<title>/Users/mmoscato/nasa/pvslib/pvslib&#45;github/structures</title>
<polygon fill="#fcfcd7" stroke="black" points="157.5,-52 88.5,-52 88.5,-16 157.5,-16 157.5,-52"/>
<text text-anchor="middle" x="123" y="-30.3" font-family="Times,serif" font-size="14.00">structures</text>
</g>
<!-- /Users/mmoscato/nasa/cpr/gitlab_github/PVS/CPR&#45;&gt;/Users/mmoscato/nasa/pvslib/pvslib&#45;github/structures -->
<g id="edge10" class="edge">
<title>/Users/mmoscato/nasa/cpr/gitlab_github/PVS/CPR&#45;&gt;/Users/mmoscato/nasa/pvslib/pvslib&#45;github/structures</title>
<path fill="none" stroke="black" d="M830.79,-121C698.61,-121 129.9,-121 129.9,-121 129.9,-121 129.9,-62.03 129.9,-62.03"/>
<polygon fill="black" stroke="black" points="133.4,-62.03 129.9,-52.03 126.4,-62.03 133.4,-62.03"/>
</g>
<!-- /Users/mmoscato/nasa/pvslib/pvslib&#45;github/trig -->
<g id="node16" class="node">
<title>/Users/mmoscato/nasa/pvslib/pvslib&#45;github/trig</title>
<polygon fill="#fcfcd7" stroke="black" points="230,-52 176,-52 176,-16 230,-16 230,-52"/>
<text text-anchor="middle" x="203" y="-30.3" font-family="Times,serif" font-size="14.00">trig</text>
</g>
<!-- /Users/mmoscato/nasa/cpr/gitlab_github/PVS/CPR&#45;&gt;/Users/mmoscato/nasa/pvslib/pvslib&#45;github/trig -->
<g id="edge11" class="edge">
<title>/Users/mmoscato/nasa/cpr/gitlab_github/PVS/CPR&#45;&gt;/Users/mmoscato/nasa/pvslib/pvslib&#45;github/trig</title>
<path fill="none" stroke="black" d="M830.91,-118C707.97,-118 208.4,-118 208.4,-118 208.4,-118 208.4,-62.23 208.4,-62.23"/>
<polygon fill="black" stroke="black" points="211.9,-62.23 208.4,-52.23 204.9,-62.23 211.9,-62.23"/>
</g>
<!-- /Users/mmoscato/pvs/7.1.0&#45;ix86&#45;MacOSX&#45;allegro/lib/finite_sets -->
<g id="node17" class="node">
<title>/Users/mmoscato/pvs/7.1.0&#45;ix86&#45;MacOSX&#45;allegro/lib/finite_sets</title>
<polygon fill="#fcfcd7" stroke="black" points="993.5,-52 922.5,-52 922.5,-16 993.5,-16 993.5,-52"/>
<text text-anchor="middle" x="958" y="-30.3" font-family="Times,serif" font-size="14.00">finite_sets</text>
</g>
<!-- /Users/mmoscato/nasa/cpr/gitlab_github/PVS/CPR&#45;&gt;/Users/mmoscato/pvs/7.1.0&#45;ix86&#45;MacOSX&#45;allegro/lib/finite_sets -->
<g id="edge12" class="edge">
<title>/Users/mmoscato/nasa/cpr/gitlab_github/PVS/CPR&#45;&gt;/Users/mmoscato/pvs/7.1.0&#45;ix86&#45;MacOSX&#45;allegro/lib/finite_sets</title>
<path fill="none" stroke="black" d="M885.22,-111C914.71,-111 957.6,-111 957.6,-111 957.6,-111 957.6,-62.25 957.6,-62.25"/>
<polygon fill="black" stroke="black" points="961.1,-62.25 957.6,-52.25 954.1,-62.25 961.1,-62.25"/>
</g>
<!-- /Users/mmoscato/nasa/cpr/gitlab_github/PVS/vc_nb_12 -->
<g id="node2" class="node">
<title>/Users/mmoscato/nasa/cpr/gitlab_github/PVS/vc_nb_12</title>
<polygon fill="#fcfcd7" stroke="black" points="981,-207 911,-207 911,-171 981,-171 981,-207"/>
<text text-anchor="middle" x="946" y="-185.3" font-family="Times,serif" font-size="14.00">vc_nb_12</text>
</g>
<!-- /Users/mmoscato/nasa/cpr/gitlab_github/PVS/vc_nb_12&#45;&gt;/Users/mmoscato/nasa/cpr/gitlab_github/PVS/CPR -->
<g id="edge13" class="edge">
<title>/Users/mmoscato/nasa/cpr/gitlab_github/PVS/vc_nb_12&#45;&gt;/Users/mmoscato/nasa/cpr/gitlab_github/PVS/CPR</title>
<path fill="none" stroke="black" d="M916.75,-170.97C916.75,-151.42 916.75,-123 916.75,-123 916.75,-123 895.31,-123 895.31,-123"/>
<polygon fill="black" stroke="black" points="895.31,-119.5 885.31,-123 895.31,-126.5 895.31,-119.5"/>
</g>
<!-- /Users/mmoscato/nasa/cpr/gitlab_github/PVS/vc_nb_14 -->
<g id="node3" class="node">
<title>/Users/mmoscato/nasa/cpr/gitlab_github/PVS/vc_nb_14</title>
<polygon fill="#fcfcd7" stroke="black" points="893,-207 823,-207 823,-171 893,-171 893,-207"/>
<text text-anchor="middle" x="858" y="-185.3" font-family="Times,serif" font-size="14.00">vc_nb_14</text>
</g>
<!-- /Users/mmoscato/nasa/cpr/gitlab_github/PVS/vc_nb_14&#45;&gt;/Users/mmoscato/nasa/cpr/gitlab_github/PVS/CPR -->
<g id="edge14" class="edge">
<title>/Users/mmoscato/nasa/cpr/gitlab_github/PVS/vc_nb_14&#45;&gt;/Users/mmoscato/nasa/cpr/gitlab_github/PVS/CPR</title>
<path fill="none" stroke="black" d="M880.09,-170.83C880.09,-170.83 880.09,-145.41 880.09,-145.41"/>
<polygon fill="black" stroke="black" points="883.59,-145.41 880.09,-135.41 876.59,-145.41 883.59,-145.41"/>
</g>
<!-- /Users/mmoscato/nasa/cpr/gitlab_github/PVS/vc_nb_14&#45;&gt;/Users/mmoscato/nasa/pvslib/pvslib&#45;github/Sturm -->
<g id="edge15" class="edge">
<title>/Users/mmoscato/nasa/cpr/gitlab_github/PVS/vc_nb_14&#45;&gt;/Users/mmoscato/nasa/pvslib/pvslib&#45;github/Sturm</title>
<path fill="none" stroke="black" d="M865.36,-170.94C865.36,-159.56 865.36,-147 865.36,-147 865.36,-147 588.4,-147 588.4,-147 588.4,-147 588.4,-62.16 588.4,-62.16"/>
<polygon fill="black" stroke="black" points="591.9,-62.16 588.4,-52.16 584.9,-62.16 591.9,-62.16"/>
</g>
<!-- /Users/mmoscato/nasa/cpr/gitlab_github/PVS/vc_nb_14&#45;&gt;/Users/mmoscato/nasa/pvslib/pvslib&#45;github/analysis -->
<g id="edge16" class="edge">
<title>/Users/mmoscato/nasa/cpr/gitlab_github/PVS/vc_nb_14&#45;&gt;/Users/mmoscato/nasa/pvslib/pvslib&#45;github/analysis</title>
<path fill="none" stroke="black" d="M850.64,-170.79C850.64,-165.45 850.64,-161 850.64,-161 850.64,-161 272,-161 272,-161 272,-161 272,-62.2 272,-62.2"/>
<polygon fill="black" stroke="black" points="275.5,-62.2 272,-52.2 268.5,-62.2 275.5,-62.2"/>
</g>
<!-- /Users/mmoscato/nasa/cpr/gitlab_github/PVS/vc_nb_14&#45;&gt;/Users/mmoscato/nasa/pvslib/pvslib&#45;github/exact_real_arith -->
<g id="edge17" class="edge">
<title>/Users/mmoscato/nasa/cpr/gitlab_github/PVS/vc_nb_14&#45;&gt;/Users/mmoscato/nasa/pvslib/pvslib&#45;github/exact_real_arith</title>
<path fill="none" stroke="black" d="M855.55,-170.86C855.55,-164.54 855.55,-159 855.55,-159 855.55,-159 367.6,-159 367.6,-159 367.6,-159 367.6,-62.18 367.6,-62.18"/>
<polygon fill="black" stroke="black" points="371.1,-62.18 367.6,-52.18 364.1,-62.18 371.1,-62.18"/>
</g>
<!-- /Users/mmoscato/nasa/cpr/gitlab_github/PVS/vc_nb_14&#45;&gt;/Users/mmoscato/nasa/pvslib/pvslib&#45;github/interval_arith -->
<g id="edge18" class="edge">
<title>/Users/mmoscato/nasa/cpr/gitlab_github/PVS/vc_nb_14&#45;&gt;/Users/mmoscato/nasa/pvslib/pvslib&#45;github/interval_arith</title>
<path fill="none" stroke="black" d="M860.45,-170.68C860.45,-162.21 860.45,-154 860.45,-154 860.45,-154 501.9,-154 501.9,-154 501.9,-154 501.9,-62.23 501.9,-62.23"/>
<polygon fill="black" stroke="black" points="505.4,-62.23 501.9,-52.23 498.4,-62.23 505.4,-62.23"/>
</g>
<!-- /Users/mmoscato/nasa/cpr/gitlab_github/PVS/vc_nb_14&#45;&gt;/Users/mmoscato/nasa/pvslib/pvslib&#45;github/ints -->
<g id="edge19" class="edge">
<title>/Users/mmoscato/nasa/cpr/gitlab_github/PVS/vc_nb_14&#45;&gt;/Users/mmoscato/nasa/pvslib/pvslib&#45;github/ints</title>
<path fill="none" stroke="black" d="M822.9,-189C817.68,-189 814,-189 814,-189 814,-189 814,-62.08 814,-62.08"/>
<polygon fill="black" stroke="black" points="817.5,-62.08 814,-52.08 810.5,-62.08 817.5,-62.08"/>
</g>
<!-- /Users/mmoscato/nasa/cpr/gitlab_github/PVS/vc_nb_14&#45;&gt;/Users/mmoscato/nasa/pvslib/pvslib&#45;github/lnexp -->
<g id="edge20" class="edge">
<title>/Users/mmoscato/nasa/cpr/gitlab_github/PVS/vc_nb_14&#45;&gt;/Users/mmoscato/nasa/pvslib/pvslib&#45;github/lnexp</title>
<path fill="none" stroke="black" d="M875.18,-170.81C875.18,-155.82 875.18,-137 875.18,-137 875.18,-137 750.83,-137 750.83,-137 750.83,-137 750.83,-62.41 750.83,-62.41"/>
<polygon fill="black" stroke="black" points="754.33,-62.41 750.83,-52.41 747.33,-62.41 754.33,-62.41"/>
</g>
<!-- /Users/mmoscato/nasa/cpr/gitlab_github/PVS/vc_nb_14&#45;&gt;/Users/mmoscato/nasa/pvslib/pvslib&#45;github/orders -->
<g id="edge21" class="edge">
<title>/Users/mmoscato/nasa/cpr/gitlab_github/PVS/vc_nb_14&#45;&gt;/Users/mmoscato/nasa/pvslib/pvslib&#45;github/orders</title>
<path fill="none" stroke="black" d="M870.27,-170.95C870.27,-156.63 870.27,-139 870.27,-139 870.27,-139 668,-139 668,-139 668,-139 668,-62.29 668,-62.29"/>
<polygon fill="black" stroke="black" points="671.5,-62.29 668,-52.29 664.5,-62.29 671.5,-62.29"/>
</g>
<!-- /Users/mmoscato/nasa/cpr/gitlab_github/PVS/vc_nb_14&#45;&gt;/Users/mmoscato/nasa/pvslib/pvslib&#45;github/reals -->
<g id="edge22" class="edge">
<title>/Users/mmoscato/nasa/cpr/gitlab_github/PVS/vc_nb_14&#45;&gt;/Users/mmoscato/nasa/pvslib/pvslib&#45;github/reals</title>
<path fill="none" stroke="black" d="M887.67,-170.92C887.67,-170.92 887.67,-62.45 887.67,-62.45"/>
<polygon fill="black" stroke="black" points="891.17,-62.45 887.67,-52.45 884.17,-62.45 891.17,-62.45"/>
</g>
<!-- /Users/mmoscato/nasa/cpr/gitlab_github/PVS/vc_nb_14&#45;&gt;/Users/mmoscato/nasa/pvslib/pvslib&#45;github/series -->
<g id="edge23" class="edge">
<title>/Users/mmoscato/nasa/cpr/gitlab_github/PVS/vc_nb_14&#45;&gt;/Users/mmoscato/nasa/pvslib/pvslib&#45;github/series</title>
<path fill="none" stroke="black" d="M835.91,-170.92C835.91,-169.15 835.91,-168 835.91,-168 835.91,-168 37.6,-168 37.6,-168 37.6,-168 37.6,-62.07 37.6,-62.07"/>
<polygon fill="black" stroke="black" points="41.1,-62.07 37.6,-52.07 34.1,-62.07 41.1,-62.07"/>
</g>
<!-- /Users/mmoscato/nasa/cpr/gitlab_github/PVS/vc_nb_14&#45;&gt;/Users/mmoscato/nasa/pvslib/pvslib&#45;github/structures -->
<g id="edge24" class="edge">
<title>/Users/mmoscato/nasa/cpr/gitlab_github/PVS/vc_nb_14&#45;&gt;/Users/mmoscato/nasa/pvslib/pvslib&#45;github/structures</title>
<path fill="none" stroke="black" d="M840.82,-170.88C840.82,-168.03 840.82,-166 840.82,-166 840.82,-166 116.1,-166 116.1,-166 116.1,-166 116.1,-62.08 116.1,-62.08"/>
<polygon fill="black" stroke="black" points="119.6,-62.08 116.1,-52.08 112.6,-62.08 119.6,-62.08"/>
</g>
<!-- /Users/mmoscato/nasa/cpr/gitlab_github/PVS/vc_nb_14&#45;&gt;/Users/mmoscato/nasa/pvslib/pvslib&#45;github/trig -->
<g id="edge25" class="edge">
<title>/Users/mmoscato/nasa/cpr/gitlab_github/PVS/vc_nb_14&#45;&gt;/Users/mmoscato/nasa/pvslib/pvslib&#45;github/trig</title>
<path fill="none" stroke="black" d="M845.73,-170.94C845.73,-166.51 845.73,-163 845.73,-163 845.73,-163 197.6,-163 197.6,-163 197.6,-163 197.6,-62.21 197.6,-62.21"/>
<polygon fill="black" stroke="black" points="201.1,-62.21 197.6,-52.21 194.1,-62.21 201.1,-62.21"/>
</g>
<!-- /Users/mmoscato/nasa/cpr/gitlab_github/PVS/vc_nb_14&#45;&gt;/Users/mmoscato/pvs/7.1.0&#45;ix86&#45;MacOSX&#45;allegro/lib/finite_sets -->
<g id="edge26" class="edge">
<title>/Users/mmoscato/nasa/cpr/gitlab_github/PVS/vc_nb_14&#45;&gt;/Users/mmoscato/pvs/7.1.0&#45;ix86&#45;MacOSX&#45;allegro/lib/finite_sets</title>
<path fill="none" stroke="black" d="M890.33,-171C890.33,-137.06 890.33,-67 890.33,-67 890.33,-67 945.9,-67 945.9,-67 945.9,-67 945.9,-62.04 945.9,-62.04"/>
<polygon fill="black" stroke="black" points="949.4,-62.04 945.9,-52.04 942.4,-62.04 949.4,-62.04"/>
</g>
<!-- /Users/mmoscato/nasa/cpr/gitlab_github/PVS/vc_nb_17 -->
<g id="node4" class="node">
<title>/Users/mmoscato/nasa/cpr/gitlab_github/PVS/vc_nb_17</title>
<polygon fill="#fcfcd7" stroke="black" points="717,-207 647,-207 647,-171 717,-171 717,-207"/>
<text text-anchor="middle" x="682" y="-185.3" font-family="Times,serif" font-size="14.00">vc_nb_17</text>
</g>
<!-- /Users/mmoscato/nasa/cpr/gitlab_github/PVS/vc_nb_17&#45;&gt;/Users/mmoscato/nasa/cpr/gitlab_github/PVS/CPR -->
<g id="edge27" class="edge">
<title>/Users/mmoscato/nasa/cpr/gitlab_github/PVS/vc_nb_17&#45;&gt;/Users/mmoscato/nasa/cpr/gitlab_github/PVS/CPR</title>
<path fill="none" stroke="black" d="M714.17,-170.78C714.17,-152.17 714.17,-126 714.17,-126 714.17,-126 820.95,-126 820.95,-126"/>
<polygon fill="black" stroke="black" points="820.95,-129.5 830.95,-126 820.95,-122.5 820.95,-129.5"/>
</g>
<!-- /Users/mmoscato/nasa/cpr/gitlab_github/PVS/vc_nb_17&#45;&gt;/Users/mmoscato/nasa/pvslib/pvslib&#45;github/Sturm -->
<g id="edge28" class="edge">
<title>/Users/mmoscato/nasa/cpr/gitlab_github/PVS/vc_nb_17&#45;&gt;/Users/mmoscato/nasa/pvslib/pvslib&#45;github/Sturm</title>
<path fill="none" stroke="black" d="M646.81,-175C612.93,-175 566.8,-175 566.8,-175 566.8,-175 566.8,-62.14 566.8,-62.14"/>
<polygon fill="black" stroke="black" points="570.3,-62.14 566.8,-52.14 563.3,-62.14 570.3,-62.14"/>
</g>
<!-- /Users/mmoscato/nasa/cpr/gitlab_github/PVS/vc_nb_17&#45;&gt;/Users/mmoscato/nasa/pvslib/pvslib&#45;github/analysis -->
<g id="edge29" class="edge">
<title>/Users/mmoscato/nasa/cpr/gitlab_github/PVS/vc_nb_17&#45;&gt;/Users/mmoscato/nasa/pvslib/pvslib&#45;github/analysis</title>
<path fill="none" stroke="black" d="M646.75,-189C545.32,-189 260,-189 260,-189 260,-189 260,-62.08 260,-62.08"/>
<polygon fill="black" stroke="black" points="263.5,-62.08 260,-52.08 256.5,-62.08 263.5,-62.08"/>
</g>
<!-- /Users/mmoscato/nasa/cpr/gitlab_github/PVS/vc_nb_17&#45;&gt;/Users/mmoscato/nasa/pvslib/pvslib&#45;github/exact_real_arith -->
<g id="edge30" class="edge">
<title>/Users/mmoscato/nasa/cpr/gitlab_github/PVS/vc_nb_17&#45;&gt;/Users/mmoscato/nasa/pvslib/pvslib&#45;github/exact_real_arith</title>
<path fill="none" stroke="black" d="M646.76,-184C560.7,-184 346.8,-184 346.8,-184 346.8,-184 346.8,-62.09 346.8,-62.09"/>
<polygon fill="black" stroke="black" points="350.3,-62.09 346.8,-52.09 343.3,-62.09 350.3,-62.09"/>
</g>
<!-- /Users/mmoscato/nasa/cpr/gitlab_github/PVS/vc_nb_17&#45;&gt;/Users/mmoscato/nasa/pvslib/pvslib&#45;github/interval_arith -->
<g id="edge31" class="edge">
<title>/Users/mmoscato/nasa/cpr/gitlab_github/PVS/vc_nb_17&#45;&gt;/Users/mmoscato/nasa/pvslib/pvslib&#45;github/interval_arith</title>
<path fill="none" stroke="black" d="M646.86,-180C585.74,-180 466.3,-180 466.3,-180 466.3,-180 466.3,-62.2 466.3,-62.2"/>
<polygon fill="black" stroke="black" points="469.8,-62.2 466.3,-52.2 462.8,-62.2 469.8,-62.2"/>
</g>
<!-- /Users/mmoscato/nasa/cpr/gitlab_github/PVS/vc_nb_17&#45;&gt;/Users/mmoscato/nasa/pvslib/pvslib&#45;github/ints -->
<g id="edge32" class="edge">
<title>/Users/mmoscato/nasa/cpr/gitlab_github/PVS/vc_nb_17&#45;&gt;/Users/mmoscato/nasa/pvslib/pvslib&#45;github/ints</title>
<path fill="none" stroke="black" d="M711.33,-170.96C711.33,-158.44 711.33,-144 711.33,-144 711.33,-144 777.5,-144 777.5,-144 777.5,-144 777.5,-62.16 777.5,-62.16"/>
<polygon fill="black" stroke="black" points="781,-62.16 777.5,-52.16 774,-62.16 781,-62.16"/>
</g>
<!-- /Users/mmoscato/nasa/cpr/gitlab_github/PVS/vc_nb_17&#45;&gt;/Users/mmoscato/nasa/pvslib/pvslib&#45;github/lnexp -->
<g id="edge33" class="edge">
<title>/Users/mmoscato/nasa/cpr/gitlab_github/PVS/vc_nb_17&#45;&gt;/Users/mmoscato/nasa/pvslib/pvslib&#45;github/lnexp</title>
<path fill="none" stroke="black" d="M702.83,-170.92C702.83,-170.92 702.83,-62.45 702.83,-62.45"/>
<polygon fill="black" stroke="black" points="706.33,-62.45 702.83,-52.45 699.33,-62.45 706.33,-62.45"/>
</g>
<!-- /Users/mmoscato/nasa/cpr/gitlab_github/PVS/vc_nb_17&#45;&gt;/Users/mmoscato/nasa/pvslib/pvslib&#45;github/orders -->
<g id="edge34" class="edge">
<title>/Users/mmoscato/nasa/cpr/gitlab_github/PVS/vc_nb_17&#45;&gt;/Users/mmoscato/nasa/pvslib/pvslib&#45;github/orders</title>
<path fill="none" stroke="black" d="M654,-170.92C654,-170.92 654,-62.45 654,-62.45"/>
<polygon fill="black" stroke="black" points="657.5,-62.45 654,-52.45 650.5,-62.45 657.5,-62.45"/>
</g>
<!-- /Users/mmoscato/nasa/cpr/gitlab_github/PVS/vc_nb_17&#45;&gt;/Users/mmoscato/nasa/pvslib/pvslib&#45;github/reals -->
<g id="edge35" class="edge">
<title>/Users/mmoscato/nasa/cpr/gitlab_github/PVS/vc_nb_17&#45;&gt;/Users/mmoscato/nasa/pvslib/pvslib&#45;github/reals</title>
<path fill="none" stroke="black" d="M705.67,-170.92C705.67,-134.77 705.67,-57 705.67,-57 705.67,-57 854.25,-57 854.25,-57 854.25,-57 854.25,-56.51 854.25,-56.51"/>
<polygon fill="black" stroke="black" points="857.75,-62.12 854.25,-52.12 850.75,-62.12 857.75,-62.12"/>
</g>
<!-- /Users/mmoscato/nasa/cpr/gitlab_github/PVS/vc_nb_17&#45;&gt;/Users/mmoscato/nasa/pvslib/pvslib&#45;github/series -->
<g id="edge36" class="edge">
<title>/Users/mmoscato/nasa/cpr/gitlab_github/PVS/vc_nb_17&#45;&gt;/Users/mmoscato/nasa/pvslib/pvslib&#45;github/series</title>
<path fill="none" stroke="black" d="M646.77,-202C510.68,-202 26.8,-202 26.8,-202 26.8,-202 26.8,-62.3 26.8,-62.3"/>
<polygon fill="black" stroke="black" points="30.3,-62.3 26.8,-52.3 23.3,-62.3 30.3,-62.3"/>
</g>
<!-- /Users/mmoscato/nasa/cpr/gitlab_github/PVS/vc_nb_17&#45;&gt;/Users/mmoscato/nasa/pvslib/pvslib&#45;github/structures -->
<g id="edge37" class="edge">
<title>/Users/mmoscato/nasa/cpr/gitlab_github/PVS/vc_nb_17&#45;&gt;/Users/mmoscato/nasa/pvslib/pvslib&#45;github/structures</title>
<path fill="none" stroke="black" d="M646.61,-198C520.75,-198 102.3,-198 102.3,-198 102.3,-198 102.3,-62.18 102.3,-62.18"/>
<polygon fill="black" stroke="black" points="105.8,-62.18 102.3,-52.18 98.8,-62.18 105.8,-62.18"/>
</g>
<!-- /Users/mmoscato/nasa/cpr/gitlab_github/PVS/vc_nb_17&#45;&gt;/Users/mmoscato/nasa/pvslib/pvslib&#45;github/trig -->
<g id="edge38" class="edge">
<title>/Users/mmoscato/nasa/cpr/gitlab_github/PVS/vc_nb_17&#45;&gt;/Users/mmoscato/nasa/pvslib/pvslib&#45;github/trig</title>
<path fill="none" stroke="black" d="M646.78,-193C533.65,-193 186.8,-193 186.8,-193 186.8,-193 186.8,-62.24 186.8,-62.24"/>
<polygon fill="black" stroke="black" points="190.3,-62.24 186.8,-52.24 183.3,-62.24 190.3,-62.24"/>
</g>
<!-- /Users/mmoscato/nasa/cpr/gitlab_github/PVS/vc_nb_17&#45;&gt;/Users/mmoscato/pvs/7.1.0&#45;ix86&#45;MacOSX&#45;allegro/lib/finite_sets -->
<g id="edge39" class="edge">
<title>/Users/mmoscato/nasa/cpr/gitlab_github/PVS/vc_nb_17&#45;&gt;/Users/mmoscato/pvs/7.1.0&#45;ix86&#45;MacOSX&#45;allegro/lib/finite_sets</title>
<path fill="none" stroke="black" d="M708.5,-170.8C708.5,-135.69 708.5,-62 708.5,-62 708.5,-62 934.2,-62 934.2,-62 934.2,-62 934.2,-61.02 934.2,-61.02"/>
<polygon fill="black" stroke="black" points="937.7,-62.21 934.2,-52.21 930.7,-62.21 937.7,-62.21"/>
</g>
<!-- /Users/mmoscato/nasa/cpr/gitlab_github/PVS/vc_nb_19 -->
<g id="node5" class="node">
<title>/Users/mmoscato/nasa/cpr/gitlab_github/PVS/vc_nb_19</title>
<polygon fill="#fcfcd7" stroke="black" points="805,-207 735,-207 735,-171 805,-171 805,-207"/>
<text text-anchor="middle" x="770" y="-185.3" font-family="Times,serif" font-size="14.00">vc_nb_19</text>
</g>
<!-- /Users/mmoscato/nasa/cpr/gitlab_github/PVS/vc_nb_19&#45;&gt;/Users/mmoscato/nasa/cpr/gitlab_github/PVS/CPR -->
<g id="edge40" class="edge">
<title>/Users/mmoscato/nasa/cpr/gitlab_github/PVS/vc_nb_19&#45;&gt;/Users/mmoscato/nasa/cpr/gitlab_github/PVS/CPR</title>
<path fill="none" stroke="black" d="M799.5,-171C799.5,-153.32 799.5,-129 799.5,-129 799.5,-129 820.81,-129 820.81,-129"/>
<polygon fill="black" stroke="black" points="820.81,-132.5 830.81,-129 820.81,-125.5 820.81,-132.5"/>
</g>
<!-- /Users/mmoscato/nasa/cpr/gitlab_github/PVS/vc_nb_19&#45;&gt;/Users/mmoscato/nasa/pvslib/pvslib&#45;github/Sturm -->
<g id="edge41" class="edge">
<title>/Users/mmoscato/nasa/cpr/gitlab_github/PVS/vc_nb_19&#45;&gt;/Users/mmoscato/nasa/pvslib/pvslib&#45;github/Sturm</title>
<path fill="none" stroke="black" d="M738.17,-170.87C738.17,-160.29 738.17,-149 738.17,-149 738.17,-149 577.6,-149 577.6,-149 577.6,-149 577.6,-62.22 577.6,-62.22"/>
<polygon fill="black" stroke="black" points="581.1,-62.22 577.6,-52.22 574.1,-62.22 581.1,-62.22"/>
</g>
<!-- /Users/mmoscato/nasa/cpr/gitlab_github/PVS/vc_nb_19&#45;&gt;/Users/mmoscato/nasa/pvslib/pvslib&#45;github/analysis -->
<g id="edge42" class="edge">
<title>/Users/mmoscato/nasa/cpr/gitlab_github/PVS/vc_nb_19&#45;&gt;/Users/mmoscato/nasa/pvslib/pvslib&#45;github/analysis</title>
<path fill="none" stroke="black" d="M747.67,-170.67C747.67,-139.14 747.67,-78 747.67,-78 747.67,-78 296,-78 296,-78 296,-78 296,-62.15 296,-62.15"/>
<polygon fill="black" stroke="black" points="299.5,-62.15 296,-52.15 292.5,-62.15 299.5,-62.15"/>
</g>
<!-- /Users/mmoscato/nasa/cpr/gitlab_github/PVS/vc_nb_19&#45;&gt;/Users/mmoscato/nasa/pvslib/pvslib&#45;github/exact_real_arith -->
<g id="edge43" class="edge">
<title>/Users/mmoscato/nasa/cpr/gitlab_github/PVS/vc_nb_19&#45;&gt;/Users/mmoscato/nasa/pvslib/pvslib&#45;github/exact_real_arith</title>
<path fill="none" stroke="black" d="M741.33,-170.96C741.33,-154.27 741.33,-132 741.33,-132 741.33,-132 388.4,-132 388.4,-132 388.4,-132 388.4,-62.43 388.4,-62.43"/>
<polygon fill="black" stroke="black" points="391.9,-62.43 388.4,-52.43 384.9,-62.43 391.9,-62.43"/>
</g>
<!-- /Users/mmoscato/nasa/cpr/gitlab_github/PVS/vc_nb_19&#45;&gt;/Users/mmoscato/nasa/pvslib/pvslib&#45;github/interval_arith -->
<g id="edge44" class="edge">
<title>/Users/mmoscato/nasa/cpr/gitlab_github/PVS/vc_nb_19&#45;&gt;/Users/mmoscato/nasa/pvslib/pvslib&#45;github/interval_arith</title>
<path fill="none" stroke="black" d="M736.58,-170.96C736.58,-163.25 736.58,-156 736.58,-156 736.58,-156 484.1,-156 484.1,-156 484.1,-156 484.1,-62 484.1,-62"/>
<polygon fill="black" stroke="black" points="487.6,-62 484.1,-52 480.6,-62 487.6,-62"/>
</g>
<!-- /Users/mmoscato/nasa/cpr/gitlab_github/PVS/vc_nb_19&#45;&gt;/Users/mmoscato/nasa/pvslib/pvslib&#45;github/ints -->
<g id="edge45" class="edge">
<title>/Users/mmoscato/nasa/cpr/gitlab_github/PVS/vc_nb_19&#45;&gt;/Users/mmoscato/nasa/pvslib/pvslib&#45;github/ints</title>
<path fill="none" stroke="black" d="M788.5,-170.92C788.5,-170.92 788.5,-62.45 788.5,-62.45"/>
<polygon fill="black" stroke="black" points="792,-62.45 788.5,-52.45 785,-62.45 792,-62.45"/>
</g>
<!-- /Users/mmoscato/nasa/cpr/gitlab_github/PVS/vc_nb_19&#45;&gt;/Users/mmoscato/nasa/pvslib/pvslib&#45;github/lnexp -->
<g id="edge46" class="edge">
<title>/Users/mmoscato/nasa/cpr/gitlab_github/PVS/vc_nb_19&#45;&gt;/Users/mmoscato/nasa/pvslib/pvslib&#45;github/lnexp</title>
<path fill="none" stroke="black" d="M749.25,-170.92C749.25,-170.92 749.25,-62.45 749.25,-62.45"/>
<polygon fill="black" stroke="black" points="752.75,-62.45 749.25,-52.45 745.75,-62.45 752.75,-62.45"/>
</g>
<!-- /Users/mmoscato/nasa/cpr/gitlab_github/PVS/vc_nb_19&#45;&gt;/Users/mmoscato/nasa/pvslib/pvslib&#45;github/orders -->
<g id="edge47" class="edge">
<title>/Users/mmoscato/nasa/cpr/gitlab_github/PVS/vc_nb_19&#45;&gt;/Users/mmoscato/nasa/pvslib/pvslib&#45;github/orders</title>
<path fill="none" stroke="black" d="M739.75,-170.96C739.75,-157.71 739.75,-142 739.75,-142 739.75,-142 661,-142 661,-142 661,-142 661,-62.32 661,-62.32"/>
<polygon fill="black" stroke="black" points="664.5,-62.32 661,-52.32 657.5,-62.32 664.5,-62.32"/>
</g>
<!-- /Users/mmoscato/nasa/cpr/gitlab_github/PVS/vc_nb_19&#45;&gt;/Users/mmoscato/nasa/pvslib/pvslib&#45;github/reals -->
<g id="edge48" class="edge">
<title>/Users/mmoscato/nasa/cpr/gitlab_github/PVS/vc_nb_19&#45;&gt;/Users/mmoscato/nasa/pvslib/pvslib&#45;github/reals</title>
<path fill="none" stroke="black" d="M794,-170.98C794,-138.16 794,-72 794,-72 794,-72 864.5,-72 864.5,-72 864.5,-72 864.5,-62.11 864.5,-62.11"/>
<polygon fill="black" stroke="black" points="868,-62.11 864.5,-52.11 861,-62.11 868,-62.11"/>
</g>
<!-- /Users/mmoscato/nasa/cpr/gitlab_github/PVS/vc_nb_19&#45;&gt;/Users/mmoscato/nasa/pvslib/pvslib&#45;github/series -->
<g id="edge49" class="edge">
<title>/Users/mmoscato/nasa/cpr/gitlab_github/PVS/vc_nb_19&#45;&gt;/Users/mmoscato/nasa/pvslib/pvslib&#45;github/series</title>
<path fill="none" stroke="black" d="M742.92,-170.94C742.92,-143.13 742.92,-93 742.92,-93 742.92,-93 59.2,-93 59.2,-93 59.2,-93 59.2,-62.02 59.2,-62.02"/>
<polygon fill="black" stroke="black" points="62.7,-62.02 59.2,-52.02 55.7,-62.02 62.7,-62.02"/>
</g>
<!-- /Users/mmoscato/nasa/cpr/gitlab_github/PVS/vc_nb_19&#45;&gt;/Users/mmoscato/nasa/pvslib/pvslib&#45;github/structures -->
<g id="edge50" class="edge">
<title>/Users/mmoscato/nasa/cpr/gitlab_github/PVS/vc_nb_19&#45;&gt;/Users/mmoscato/nasa/pvslib/pvslib&#45;github/structures</title>
<path fill="none" stroke="black" d="M744.5,-170.94C744.5,-141.89 744.5,-88 744.5,-88 744.5,-88 143.7,-88 143.7,-88 143.7,-88 143.7,-62.28 143.7,-62.28"/>
<polygon fill="black" stroke="black" points="147.2,-62.28 143.7,-52.28 140.2,-62.28 147.2,-62.28"/>
</g>
<!-- /Users/mmoscato/nasa/cpr/gitlab_github/PVS/vc_nb_19&#45;&gt;/Users/mmoscato/nasa/pvslib/pvslib&#45;github/trig -->
<g id="edge51" class="edge">
<title>/Users/mmoscato/nasa/cpr/gitlab_github/PVS/vc_nb_19&#45;&gt;/Users/mmoscato/nasa/pvslib/pvslib&#45;github/trig</title>
<path fill="none" stroke="black" d="M746.08,-170.54C746.08,-140.17 746.08,-83 746.08,-83 746.08,-83 219.2,-83 219.2,-83 219.2,-83 219.2,-62.25 219.2,-62.25"/>
<polygon fill="black" stroke="black" points="222.7,-62.25 219.2,-52.25 215.7,-62.25 222.7,-62.25"/>
</g>
<!-- /Users/mmoscato/nasa/cpr/gitlab_github/PVS/vc_nb_19&#45;&gt;/Users/mmoscato/pvs/7.1.0&#45;ix86&#45;MacOSX&#45;allegro/lib/finite_sets -->
<g id="edge52" class="edge">
<title>/Users/mmoscato/nasa/cpr/gitlab_github/PVS/vc_nb_19&#45;&gt;/Users/mmoscato/pvs/7.1.0&#45;ix86&#45;MacOSX&#45;allegro/lib/finite_sets</title>
<path fill="none" stroke="black" d="M783,-170.89C783,-161.1 783,-151 783,-151 783,-151 969.3,-151 969.3,-151 969.3,-151 969.3,-62.02 969.3,-62.02"/>
<polygon fill="black" stroke="black" points="972.8,-62.02 969.3,-52.02 965.8,-62.02 972.8,-62.02"/>
</g>
</g>
</svg>
